<svg width="50" height="50" viewBox="0 0 50 50" fill="none" xmlns="http://www.w3.org/2000/svg">
<rect width="50" height="50" fill="#FF362D"/>
<path d="M26.4903 27.2076L26.8486 26.8493C27.2717 26.4262 27.2717 25.7407 26.8486 25.3174C26.4254 24.8941 25.7399 24.8943 25.3167 25.3174L23.15 27.4841C22.7268 27.9072 22.7268 28.5928 23.15 29.016L25.3167 31.1827C25.5283 31.3941 25.8055 31.5 26.0827 31.5C26.3599 31.5 26.637 31.3941 26.8486 31.1826C27.2717 30.7594 27.2717 30.0739 26.8486 29.6506L26.5787 29.3808C31.2312 29.6415 33.666 30.9978 33.666 31.5C33.666 32.0565 30.6858 33.6667 24.9993 33.6667C19.3129 33.6667 16.3327 32.0565 16.3327 31.5C16.3327 31.3582 17.0119 30.4462 20.0154 29.8115C20.6004 29.6877 20.9749 29.1133 20.8512 28.5272C20.7273 27.9422 20.1572 27.5677 19.5669 27.6914C16.0841 28.4278 14.166 29.7798 14.166 31.5C14.166 34.477 19.7816 35.8333 24.9993 35.8333C30.2171 35.8333 35.8327 34.477 35.8327 31.5C35.8327 28.8055 31.2322 27.4428 26.4903 27.2076ZM19.041 20.6667H17.416C16.8173 20.6667 16.3327 21.1512 16.3327 21.75C16.3327 22.3487 16.8173 22.8333 17.416 22.8333H19.041C20.5348 22.8333 21.7493 21.6188 21.7493 20.125C21.7493 19.5156 21.5473 18.9528 21.2066 18.5C21.5473 18.0472 21.7493 17.4844 21.7493 16.875C21.7493 15.3812 20.5348 14.1667 19.041 14.1667H17.416C16.8173 14.1667 16.3327 14.6512 16.3327 15.25C16.3327 15.8487 16.8173 16.3333 17.416 16.3333H19.041C19.3394 16.3333 19.5827 16.5766 19.5827 16.875C19.5827 17.1733 19.3394 17.4167 19.041 17.4167H17.416C16.8173 17.4167 16.3327 17.9012 16.3327 18.5C16.3327 19.0987 16.8173 19.5833 17.416 19.5833H19.041C19.3394 19.5833 19.5827 19.8266 19.5827 20.125C19.5827 20.4233 19.3394 20.6667 19.041 20.6667ZM24.9993 22.8333H26.0827C27.2771 22.8333 28.2493 21.861 28.2493 20.6667V19.5833C28.2493 18.3889 27.2771 17.4167 26.0827 17.4167H24.9993V16.3333H27.166C27.7648 16.3333 28.2493 15.8487 28.2493 15.25C28.2493 14.6512 27.7648 14.1667 27.166 14.1667H24.9993C23.805 14.1667 22.8327 15.1389 22.8327 16.3333V20.6667C22.8327 21.861 23.805 22.8333 24.9993 22.8333ZM24.9993 19.5833H26.0827V20.6667H24.9993V19.5833ZM32.041 22.8333C33.5348 22.8333 34.7493 21.6188 34.7493 20.125V16.875C34.7493 15.3812 33.5348 14.1667 32.041 14.1667C30.5472 14.1667 29.3327 15.3812 29.3327 16.875V20.125C29.3327 21.6188 30.5472 22.8333 32.041 22.8333ZM31.4993 16.875C31.4993 16.5766 31.7427 16.3333 32.041 16.3333C32.3394 16.3333 32.5827 16.5766 32.5827 16.875V20.125C32.5827 20.4233 32.3394 20.6667 32.041 20.6667C31.7427 20.6667 31.4993 20.4233 31.4993 20.125V16.875Z" fill="white"/>
</svg>
