<svg width="61" height="61" viewBox="0 0 61 61" fill="none" xmlns="http://www.w3.org/2000/svg">
<path fill-rule="evenodd" clip-rule="evenodd" d="M23.168 11.75H22.2323C21.6166 11.7498 21.0069 11.8708 20.4379 12.1063C19.869 12.3417 19.352 12.687 18.9166 13.1223C18.4811 13.5576 18.1357 14.0744 17.9 14.6432C17.6643 15.2121 17.543 15.8218 17.543 16.4375V18.3125C17.543 18.9281 17.6642 19.5376 17.8998 20.1063C18.1354 20.675 18.4806 21.1918 18.9159 21.6271C19.795 22.5061 20.9873 23 22.2305 23H39.1055C39.721 23 40.3306 22.8788 40.8993 22.6432C41.468 22.4076 41.9848 22.0623 42.42 21.6271C42.8553 21.1918 43.2006 20.675 43.4361 20.1063C43.6717 19.5376 43.793 18.9281 43.793 18.3125L43.7948 16.4375C43.7948 15.1943 43.301 14.002 42.4219 13.1229C41.5428 12.2439 40.3505 11.75 39.1073 11.75H38.168V8.9375C38.168 7.6943 37.6741 6.50201 36.795 5.62294C35.916 4.74386 34.7237 4.25 33.4805 4.25H27.8555C26.6123 4.25 25.42 4.74386 24.5409 5.62294C23.6618 6.50201 23.168 7.6943 23.168 8.9375V11.75ZM26.918 11.75H34.418V8.9375C34.4176 8.68885 34.3192 8.45037 34.1442 8.27375C33.968 8.09937 33.7298 8 33.4805 8H27.8555C27.6068 8.00037 27.3683 8.09873 27.1917 8.27375C27.0173 8.45 26.918 8.68813 26.918 8.9375V11.75ZM36.293 15.5H39.1073C39.3557 15.501 39.5936 15.6001 39.7692 15.7757C39.9448 15.9513 40.0439 16.1892 40.0448 16.4375V18.3125C40.0448 18.5611 39.9461 18.7996 39.7703 18.9754C39.5944 19.1512 39.356 19.25 39.1073 19.25H22.2323C21.984 19.249 21.7461 19.1499 21.5705 18.9743C21.3949 18.7987 21.2958 18.5608 21.2948 18.3125V16.4375C21.2948 16.1889 21.3936 15.9504 21.5694 15.7746C21.7452 15.5988 21.9837 15.5 22.2323 15.5H25.043H36.293ZM49.3205 19.2481L49.418 19.25H49.4217C50.4567 19.25 51.2948 20.0881 51.2948 21.1213V51.125C51.2948 51.6219 51.0961 52.1 50.7436 52.4506C50.5697 52.625 50.3631 52.7633 50.1356 52.8576C49.9081 52.9519 49.6642 53.0003 49.418 53H11.918C11.6717 53.0003 11.4278 52.9519 11.2003 52.8576C10.9729 52.7633 10.7662 52.625 10.5923 52.4506C10.418 52.2767 10.2797 52.0701 10.1854 51.8426C10.0911 51.6151 10.0427 51.3713 10.043 51.125V21.125C10.0422 20.8786 10.0902 20.6344 10.1842 20.4066C10.2781 20.1788 10.4162 19.9718 10.5905 19.7975C10.7647 19.6233 10.9717 19.4852 11.1996 19.3912C11.4274 19.2972 11.6715 19.2493 11.918 19.25C11.918 19.25 11.8955 16.925 11.918 15.5C11.1791 15.4995 10.4475 15.6447 9.76479 15.9272C9.08212 16.2097 8.46182 16.624 7.9394 17.1464C7.41697 17.6689 7.00265 18.2891 6.72014 18.9718C6.43764 19.6545 6.29248 20.3862 6.29297 21.125V51.125C6.29297 52.6175 6.88547 54.0481 7.94297 55.1019C8.46483 55.6242 9.08448 56.0386 9.76652 56.3214C10.4486 56.6041 11.1796 56.7498 11.918 56.75H49.418C50.1568 56.7505 50.8885 56.6053 51.5711 56.3228C52.2538 56.0403 52.8741 55.626 53.3965 55.1036C53.919 54.5811 54.3333 53.9609 54.6158 53.2782C54.8983 52.5955 55.0435 51.8638 55.043 51.125V21.1213C55.043 19.6304 54.4507 18.2006 53.3965 17.1464C52.3424 16.0922 50.9126 15.5 49.4217 15.5C48.4842 15.5 48.2536 16.0306 48.3267 16.6925C47.8523 16.1881 47.543 16.745 47.543 17.375C47.543 18.3781 48.3323 19.1975 49.3242 19.2481H49.3205ZM43.793 32.375H17.543C17.0457 32.375 16.5688 32.1775 16.2171 31.8258C15.8655 31.4742 15.668 30.9973 15.668 30.5C15.668 30.0027 15.8655 29.5258 16.2171 29.1742C16.5688 28.8225 17.0457 28.625 17.543 28.625H43.793C44.2902 28.625 44.7672 28.8225 45.1188 29.1742C45.4704 29.5258 45.668 30.0027 45.668 30.5C45.668 30.9973 45.4704 31.4742 45.1188 31.8258C44.7672 32.1775 44.2902 32.375 43.793 32.375ZM43.793 39.875H17.543C17.0457 39.875 16.5688 39.6775 16.2171 39.3258C15.8655 38.9742 15.668 38.4973 15.668 38C15.668 37.5027 15.8655 37.0258 16.2171 36.6742C16.5688 36.3225 17.0457 36.125 17.543 36.125H43.793C44.2902 36.125 44.7672 36.3225 45.1188 36.6742C45.4704 37.0258 45.668 37.5027 45.668 38C45.668 38.4973 45.4704 38.9742 45.1188 39.3258C44.7672 39.6775 44.2902 39.875 43.793 39.875ZM43.793 47.375H17.543C17.0457 47.375 16.5688 47.1775 16.2171 46.8258C15.8655 46.4742 15.668 45.9973 15.668 45.5C15.668 45.0027 15.8655 44.5258 16.2171 44.1742C16.5688 43.8225 17.0457 43.625 17.543 43.625H43.793C44.2902 43.625 44.7672 43.8225 45.1188 44.1742C45.4704 44.5258 45.668 45.0027 45.668 45.5C45.668 45.9973 45.4704 46.4742 45.1188 46.8258C44.7672 47.1775 44.2902 47.375 43.793 47.375Z" fill="white"/>
<path d="M11.918 19.25C12.9535 19.25 13.793 18.4105 13.793 17.375C13.793 16.3395 12.9535 15.5 11.918 15.5C10.8824 15.5 10.043 16.3395 10.043 17.375C10.043 18.4105 10.8824 19.25 11.918 19.25Z" fill="white"/>
<path d="M49.418 19.25C50.4535 19.25 51.293 18.4105 51.293 17.375C51.293 16.3395 50.4535 15.5 49.418 15.5C48.3824 15.5 47.543 16.3395 47.543 17.375C47.543 18.4105 48.3824 19.25 49.418 19.25Z" fill="white"/>
</svg>
