<svg width="60" height="61" viewBox="0 0 60 61" fill="none" xmlns="http://www.w3.org/2000/svg">
<path d="M50.8333 40.6864H41.4583C40.7 40.6864 39.9875 40.8938 39.375 41.2557V30.1053C39.375 27.7711 37.5062 25.8729 35.2083 25.8729H24.7917C22.4937 25.8729 20.625 27.7711 20.625 30.1053V34.907C20.0125 34.5452 19.3 34.3378 18.5417 34.3378H9.16667C6.86875 34.3378 5 36.236 5 38.5702V55.5H55V44.9189C55 42.5847 53.1312 40.6864 50.8333 40.6864ZM22.7083 30.1053C22.7083 28.9393 23.6417 27.9891 24.7917 27.9891H35.2083C36.3583 27.9891 37.2917 28.9393 37.2917 30.1053V53.3838H22.7083V30.1053ZM7.08333 38.5702C7.08333 37.4042 8.01667 36.454 9.16667 36.454H18.5417C19.6917 36.454 20.625 37.4042 20.625 38.5702V53.3838H7.08333V38.5702ZM52.9167 53.3838H39.375V44.9189C39.375 43.7528 40.3083 42.8027 41.4583 42.8027H50.8333C51.9833 42.8027 52.9167 43.7528 52.9167 44.9189V53.3838ZM24.0625 20.94L25.3687 21.9367L30 18.8872L34.6292 21.9367L35.9292 20.9167L34.4562 15.9139L38.3333 12.7396V11.0572H32.7437L30.825 5.5H29.1729L27.2542 11.0572H21.6646V12.7396L25.5417 15.9139L24.0604 20.9378L24.0625 20.94ZM25.5146 13.1755H28.7312L29.9979 9.50389L31.2646 13.1755H34.4812L32.0562 15.1606L32.9917 18.3391L29.9979 16.3668L27.0021 18.3391L27.9375 15.1606L25.5125 13.1755H25.5146Z" fill="white"/>
</svg>
