<svg width="15" height="15" viewBox="0 0 15 15" fill="none" xmlns="http://www.w3.org/2000/svg">
<path d="M13.0936 8.22024C12.9286 8.22024 12.7561 8.16774 12.5911 8.13024C12.257 8.05661 11.9286 7.95885 11.6086 7.83774C11.2607 7.71116 10.8782 7.71773 10.5349 7.85619C10.1915 7.99465 9.91144 8.25521 9.74862 8.58774L9.58363 8.92524C8.85313 8.51887 8.18186 8.01416 7.58863 7.42524C6.9997 6.832 6.49499 6.16074 6.08863 5.43024L6.40363 5.22024C6.73615 5.05743 6.99671 4.77739 7.13517 4.43401C7.27363 4.09063 7.2802 3.70817 7.15363 3.36024C7.03454 3.03955 6.93683 2.71134 6.86113 2.37774C6.82363 2.21274 6.79363 2.04024 6.77113 1.86774C6.68005 1.33945 6.40334 0.861044 5.99084 0.518667C5.57834 0.176291 5.05715 -0.00755538 4.52113 0.000237977H2.27113C1.9479 -0.00279693 1.62781 0.0638481 1.33266 0.195636C1.0375 0.327424 0.774208 0.52126 0.560698 0.763949C0.347188 1.00664 0.188476 1.29248 0.0953664 1.60202C0.00225652 1.91156 -0.0230651 2.23753 0.0211254 2.55774C0.420679 5.69977 1.85565 8.61915 4.09936 10.8547C6.34308 13.0903 9.26766 14.5146 12.4111 14.9027H12.6961C13.2492 14.9035 13.7832 14.7006 14.1961 14.3327C14.4334 14.1205 14.6229 13.8604 14.7522 13.5695C14.8815 13.2786 14.9476 12.9636 14.9461 12.6452V10.3952C14.9369 9.87428 14.7472 9.37265 14.4094 8.97599C14.0715 8.57932 13.6065 8.31221 13.0936 8.22024ZM13.4686 12.7202C13.4685 12.8267 13.4457 12.932 13.4017 13.029C13.3577 13.1259 13.2936 13.2125 13.2136 13.2827C13.1298 13.3551 13.0318 13.4091 12.9259 13.4414C12.82 13.4737 12.7085 13.4835 12.5986 13.4702C9.7898 13.1101 7.1808 11.8251 5.18316 9.81796C3.18552 7.81081 1.91293 5.19574 1.56613 2.38524C1.55419 2.27538 1.56465 2.16424 1.59688 2.05853C1.6291 1.95283 1.68243 1.85475 1.75363 1.77024C1.82391 1.69024 1.91042 1.62612 2.00741 1.58215C2.1044 1.53818 2.20964 1.51537 2.31613 1.51524H4.56612C4.74053 1.51136 4.91084 1.5684 5.04773 1.67654C5.18462 1.78468 5.27953 1.93717 5.31612 2.10774C5.34612 2.31274 5.38363 2.51524 5.42863 2.71524C5.51526 3.1106 5.63057 3.49912 5.77363 3.87774L4.72362 4.36524C4.63385 4.40643 4.55309 4.46495 4.48599 4.53743C4.41889 4.60992 4.36678 4.69495 4.33263 4.78763C4.29848 4.88032 4.28298 4.97884 4.28701 5.07753C4.29104 5.17622 4.31453 5.27315 4.35612 5.36274C5.43553 7.6748 7.29406 9.53334 9.60612 10.6127C9.78872 10.6878 9.99353 10.6878 10.1761 10.6127C10.2697 10.5793 10.3556 10.5276 10.429 10.4606C10.5024 10.3937 10.5617 10.3128 10.6036 10.2227L11.0686 9.17274C11.4563 9.3114 11.8521 9.4266 12.2536 9.51774C12.4536 9.56274 12.6561 9.60024 12.8611 9.63024C13.0317 9.66683 13.1842 9.76174 13.2923 9.89863C13.4005 10.0355 13.4575 10.2058 13.4536 10.3802L13.4686 12.7202Z" fill="white"/>
</svg>
