<svg width="50" height="50" viewBox="0 0 50 50" fill="none" xmlns="http://www.w3.org/2000/svg">
<rect width="50" height="50" fill="#0087CC"/>
<path d="M33.0595 26.0833C32.8212 26.0833 32.572 26.0075 32.3337 25.9533C31.851 25.847 31.3767 25.7058 30.9145 25.5308C30.4119 25.348 29.8595 25.3575 29.3635 25.5575C28.8675 25.7575 28.463 26.1339 28.2278 26.6142L27.9895 27.1017C26.9343 26.5147 25.9647 25.7857 25.1078 24.935C24.2572 24.0781 23.5281 23.1085 22.9412 22.0533L23.3962 21.75C23.8765 21.5148 24.2528 21.1103 24.4528 20.6143C24.6528 20.1183 24.6623 19.5659 24.4795 19.0633C24.3075 18.6001 24.1663 18.126 24.057 17.6442C24.0028 17.4058 23.9595 17.1567 23.927 16.9075C23.7954 16.1444 23.3958 15.4534 22.7999 14.9588C22.2041 14.4643 21.4513 14.1987 20.677 14.21H17.427C16.9601 14.2056 16.4978 14.3019 16.0714 14.4922C15.6451 14.6826 15.2648 14.9626 14.9564 15.3131C14.648 15.6637 14.4187 16.0766 14.2842 16.5237C14.1497 16.9708 14.1132 17.4416 14.177 17.9042C14.7541 22.4427 16.8269 26.6595 20.0678 29.8887C23.3087 33.1178 27.5331 35.1752 32.0737 35.7358H32.4853C33.2842 35.737 34.0555 35.4439 34.652 34.9125C34.9947 34.606 35.2685 34.2302 35.4553 33.81C35.642 33.3898 35.7375 32.9348 35.7353 32.475V29.225C35.7221 28.4725 35.448 27.7479 34.96 27.175C34.472 26.602 33.8003 26.2162 33.0595 26.0833ZM33.6012 32.5833C33.601 32.7372 33.568 32.8892 33.5045 33.0293C33.441 33.1694 33.3484 33.2943 33.2328 33.3958C33.1118 33.5003 32.9702 33.5784 32.8173 33.6251C32.6643 33.6717 32.5033 33.6859 32.3445 33.6667C28.2873 33.1465 24.5188 31.2904 21.6333 28.3911C18.7478 25.4919 16.9096 21.7146 16.4087 17.655C16.3914 17.4963 16.4065 17.3358 16.4531 17.1831C16.4996 17.0304 16.5767 16.8887 16.6795 16.7667C16.781 16.6511 16.906 16.5585 17.0461 16.495C17.1862 16.4315 17.3382 16.3985 17.492 16.3983H20.742C20.9939 16.3927 21.2399 16.4751 21.4377 16.6313C21.6354 16.7875 21.7725 17.0078 21.8253 17.2542C21.8687 17.5503 21.9228 17.8428 21.9878 18.1317C22.113 18.7027 22.2795 19.2639 22.4862 19.8108L20.9695 20.515C20.8398 20.5745 20.7232 20.659 20.6263 20.7637C20.5293 20.8684 20.454 20.9912 20.4047 21.1251C20.3554 21.259 20.333 21.4013 20.3388 21.5439C20.3447 21.6864 20.3786 21.8264 20.4387 21.9558C21.9978 25.2955 24.6823 27.98 28.022 29.5392C28.2857 29.6475 28.5816 29.6475 28.8453 29.5392C28.9804 29.4908 29.1046 29.4162 29.2106 29.3195C29.3166 29.2227 29.4023 29.1059 29.4628 28.9758L30.1345 27.4592C30.6945 27.6595 31.2661 27.8259 31.8462 27.9575C32.1351 28.0225 32.4276 28.0767 32.7237 28.12C32.97 28.1729 33.1903 28.3099 33.3465 28.5077C33.5027 28.7054 33.5851 28.9514 33.5795 29.2033L33.6012 32.5833Z" fill="white"/>
</svg>
