<svg width="60" height="60" viewBox="0 0 60 60" fill="none" xmlns="http://www.w3.org/2000/svg">
<rect width="60" height="60" rx="30" fill="#1673B2"/>
<path d="M34.9998 23.2424V15H15V31.7578H19.1309V36.7576L24.1307 31.7578H25.0002V40.0002H35.8693L40.8691 45V40.0002H45V23.2424H34.9998ZM25.0002 30H23.4023L20.8887 32.5137V30H16.7578V16.7578H33.242V23.2424H25.0002V30ZM43.2422 38.2424H39.1113V40.7561L36.5977 38.2424H26.758V25.0002H43.2422V38.2424Z" fill="white"/>
<path d="M32.3881 30.6816H30.6836V32.3862H32.3881V30.6816Z" fill="white"/>
<path d="M35.7944 30.6816H34.0898V32.3862H35.7944V30.6816Z" fill="white"/>
<path d="M39.3764 30.6816H37.6719V32.3862H39.3764V30.6816Z" fill="white"/>
</svg>
