<svg width="69" height="51" viewBox="0 0 69 51" fill="none" xmlns="http://www.w3.org/2000/svg">
<path fill-rule="evenodd" clip-rule="evenodd" d="M33.0631 50.2521C33.4634 50.4166 33.8994 50.5 34.3326 50.5C34.5868 50.5 34.8374 50.4718 35.0777 50.4175C35.2585 50.377 35.4343 50.3218 35.6022 50.2521C40.0778 48.3845 45.051 47.4093 50.0988 47.4093C55.1466 47.4093 60.1197 48.3845 64.5953 50.2521C64.9956 50.4166 65.4316 50.5 65.8648 50.5C66.592 50.5 67.2894 50.2689 67.8036 49.8575C68.3179 49.4462 68.6067 48.8882 68.6067 48.3065V6.62929C68.6067 5.912 68.168 5.23859 67.4332 4.82839C57.5772 -0.656784 44.5062 -0.928624 34.3338 4.01288C24.1592 -0.928624 11.0883 -0.656784 1.23488 4.82839C0.871793 5.03043 0.575186 5.29972 0.370361 5.61331C0.165536 5.9269 0.0585717 6.27547 0.0585938 6.62929V48.3065C0.0598403 48.6833 0.182182 49.0536 0.413869 49.3817C0.645556 49.7098 0.978805 49.9847 1.38161 50.1801C1.78442 50.3755 2.24325 50.4847 2.71405 50.4973C3.18484 50.51 3.65178 50.4255 4.07002 50.2521C8.54558 48.3845 13.5187 47.4093 18.5666 47.4093C23.6144 47.4093 28.5875 48.3845 33.0631 50.2521ZM31.5907 44.924C27.3983 43.6562 22.981 43.0222 18.5666 43.0222C14.1172 43.0218 9.70463 43.6661 5.54243 44.924V7.8138C9.46491 5.89868 13.9713 4.88547 18.5666 4.88547C23.1618 4.88547 27.6682 5.89868 31.5907 7.8138V44.924ZM63.1229 44.924C58.9305 43.6562 54.5133 43.0222 50.0988 43.0222C45.6495 43.0218 41.2369 43.6661 37.0747 44.924V7.8138C40.9971 5.89868 45.5035 4.88547 50.0988 4.88547C54.694 4.88547 59.2004 5.89868 63.1229 7.8138V44.924Z" fill="white"/>
</svg>
