<svg width="50" height="50" viewBox="0 0 50 50" fill="none" xmlns="http://www.w3.org/2000/svg">
<rect width="50" height="50" fill="#3B75A5"/>
<path fill-rule="evenodd" clip-rule="evenodd" d="M24.4928 34.9009C24.6529 34.9667 24.8273 35 25.0006 35C25.1048 35 25.2074 34.9882 25.3056 34.9654C25.3755 34.9494 25.4434 34.9278 25.5084 34.9009C27.2986 34.1538 29.2879 33.7637 31.307 33.7637C33.3262 33.7637 35.3154 34.1538 37.1056 34.9009C37.2658 34.9667 37.4402 35 37.6134 35C37.9043 35 38.1833 34.9076 38.389 34.743C38.5947 34.5785 38.7102 34.3553 38.7102 34.1226V17.4517C38.7102 17.1648 38.5347 16.8954 38.2408 16.7314C34.2984 14.5373 29.07 14.4286 25.0011 16.4051C20.9312 14.4286 15.7029 14.5373 11.7615 16.7314C11.6163 16.8122 11.4977 16.9199 11.4157 17.0453C11.3338 17.1708 11.291 17.3102 11.291 17.4517V34.1226C11.2915 34.2733 11.3405 34.4214 11.4331 34.5527C11.5258 34.6839 11.6591 34.7939 11.8202 34.872C11.9813 34.9502 12.1649 34.9939 12.3532 34.9989C12.5415 35.004 12.7283 34.9702 12.8956 34.9009C14.6858 34.1538 16.6751 33.7637 18.6942 33.7637C20.7133 33.7637 22.7026 34.1538 24.4928 34.9009ZM26.0974 17.9255V32.7696C27.7623 32.2665 29.5273 32.0087 31.307 32.0089C33.0728 32.0089 34.8397 32.2625 36.5167 32.7696V17.9255C34.9477 17.1595 33.1451 16.7542 31.307 16.7542C29.4689 16.7542 27.6664 17.1595 26.0974 17.9255ZM23.9038 32.7696C22.2269 32.2625 20.46 32.0089 18.6942 32.0089C16.9145 32.0087 15.1494 32.2665 13.4846 32.7696V17.9255C15.0535 17.1595 16.8561 16.7542 18.6942 16.7542C20.5323 16.7542 22.3349 17.1595 23.9038 17.9255V32.7696Z" fill="white"/>
</svg>
