<svg width="41" height="41" viewBox="0 0 41 41" fill="none" xmlns="http://www.w3.org/2000/svg">
<path d="M20.0113 3.60156C10.6938 3.60156 3.11328 11.1821 3.11328 20.4999C3.11328 29.8179 10.6938 37.3982 20.0113 37.3982C29.3291 37.3982 36.91 29.8179 36.91 20.4999C36.9097 11.1821 29.3288 3.60156 20.0113 3.60156ZM20.0113 35.7316C11.6127 35.7316 4.77995 28.8988 4.77995 20.4999C4.77995 12.1013 11.6127 5.26823 20.0113 5.26823C28.4099 5.26823 35.2433 12.1013 35.2433 20.4999C35.243 28.8988 28.4099 35.7316 20.0113 35.7316Z" fill="white"/>
<path d="M25.2204 10.5845H21.5548C21.5465 10.5844 21.5381 10.5848 21.5298 10.5856C17.829 10.5973 17.3457 13.1814 17.3437 15.44C17.3386 15.4614 17.336 15.4833 17.3359 15.5053V17.0909H14.8032C14.7295 17.0909 14.6588 17.1201 14.6067 17.1722C14.5547 17.2243 14.5254 17.295 14.5254 17.3686V21.2789C14.5254 21.3526 14.5547 21.4232 14.6067 21.4753C14.6588 21.5274 14.7295 21.5567 14.8032 21.5567H17.3359V30.1375C17.3359 30.2112 17.3652 30.2819 17.4173 30.334C17.4694 30.386 17.5401 30.4153 17.6137 30.4153H21.3101C21.3838 30.4153 21.4544 30.386 21.5065 30.334C21.5586 30.2819 21.5879 30.2112 21.5879 30.1375V21.557H25.2201C25.2938 21.557 25.3644 21.5277 25.4165 21.4756C25.4686 21.4235 25.4979 21.3529 25.4979 21.2792V17.3689C25.4979 17.2953 25.4686 17.2246 25.4165 17.1725C25.3644 17.1204 25.2938 17.0911 25.2201 17.0911H21.3101V14.9892H25.2201C25.2938 14.9892 25.3644 14.9599 25.4165 14.9078C25.4686 14.8557 25.4979 14.7851 25.4979 14.7114V10.8623C25.4979 10.8258 25.4908 10.7897 25.4768 10.756C25.4629 10.7223 25.4425 10.6917 25.4167 10.6659C25.3909 10.6401 25.3603 10.6196 25.3266 10.6056C25.293 10.5917 25.2569 10.5845 25.2204 10.5845Z" fill="white"/>
</svg>
