<svg width="50" height="51" viewBox="0 0 50 51" fill="none" xmlns="http://www.w3.org/2000/svg">
<path d="M39.5846 16.8144C39.5846 17.7689 38.8555 18.5498 37.9643 18.5498H33.0707C32.6494 25.3178 27.367 30.6975 20.9504 30.6975H16.5754L30.8832 43.2444C31.58 43.8517 31.6772 44.945 31.1101 45.6912C30.786 46.1077 30.3161 46.3333 29.8462 46.3333C29.4897 46.3333 29.117 46.2119 28.8254 45.9342L11.0175 30.2984C10.4828 29.8298 10.2883 29.0662 10.5152 28.3721C10.742 27.6779 11.3578 27.2267 12.0383 27.2267H20.9504C25.5846 27.2267 29.4087 23.4089 29.83 18.5498H12.0383C11.1471 18.5498 10.418 17.7689 10.418 16.8144C10.418 15.8599 11.1471 15.079 12.0383 15.079H29.5221C28.4689 11.0703 25.0175 8.13745 20.9504 8.13745H12.0383C11.1471 8.13745 10.418 7.35652 10.418 6.40206C10.418 5.4476 11.1471 4.66667 12.0383 4.66667H37.9643C38.8555 4.66667 39.5846 5.4476 39.5846 6.40206C39.5846 7.35652 38.8555 8.13745 37.9643 8.13745H29.1981C31.0291 9.95961 32.3416 12.3718 32.8439 15.079H37.9481C38.8393 15.079 39.5684 15.8599 39.5684 16.8144H39.5846Z" fill="white"/>
</svg>
