<svg width="41" height="41" viewBox="0 0 41 41" fill="none" xmlns="http://www.w3.org/2000/svg">
<path d="M20.0348 3.60156C10.7173 3.60156 3.13672 11.1821 3.13672 20.4999C3.13672 29.8177 10.7173 37.3982 20.0348 37.3982C29.3526 37.3982 36.9331 29.8177 36.9331 20.4999C36.9331 11.1821 29.3523 3.60156 20.0348 3.60156ZM20.0348 35.7316C11.6362 35.7316 4.80339 28.8985 4.80339 20.4999C4.80339 12.1013 11.6362 5.26823 20.0348 5.26823C28.4334 5.26823 35.2664 12.1013 35.2664 20.4999C35.2664 28.8985 28.4334 35.7316 20.0348 35.7316Z" fill="white"/>
<path d="M25.3219 12.3613H14.7469C13.1871 12.3613 11.918 13.6302 11.918 15.1902V25.8138C11.918 27.3735 13.1869 28.6427 14.7469 28.6427H25.3216C26.8813 28.6427 28.1505 27.3738 28.1505 25.8138V15.1899C28.1505 13.6302 26.8816 12.3613 25.3219 12.3613ZM22.4805 20.4719C22.4805 21.8208 21.3832 22.918 20.0344 22.918C18.6855 22.918 17.5882 21.8208 17.5882 20.4719C17.5882 19.8027 17.8588 19.196 18.2955 18.7541H21.773C22.2265 19.2107 22.4809 19.8283 22.4805 20.4719ZM23.1896 14.6247H25.6674V17.1772H23.1896V14.6247ZM25.3219 26.9758H14.7469C14.4387 26.9754 14.1433 26.8528 13.9254 26.635C13.7076 26.4171 13.585 26.1217 13.5846 25.8135V18.7541H16.3024C16.0521 19.2922 15.9222 19.8784 15.9216 20.4719C15.9216 22.7399 17.7666 24.5847 20.0344 24.5847C22.3021 24.5847 24.1471 22.7397 24.1471 20.4719C24.1471 19.8583 24.0082 19.2777 23.7663 18.7541H26.4838V25.8135C26.4834 26.1216 26.3609 26.417 26.1431 26.6349C25.9253 26.8527 25.6299 26.9753 25.3219 26.9758Z" fill="white"/>
</svg>
