<svg width="1440" height="960" viewBox="0 0 1440 960" fill="none" xmlns="http://www.w3.org/2000/svg">
<g clip-path="url(#clip0_4717_64295)">
<rect width="1440" height="960" fill="#EEEEEE"/>
<g style="mix-blend-mode:lighten">
<path d="M0.000244141 959.924L2445 959.924V-19.6434L0.000244141 -19.6434V959.924Z" fill="#ECECEC"/>
<mask id="mask0_4717_64295" style="mask-type:luminance" maskUnits="userSpaceOnUse" x="0" y="-20" width="2445" height="980">
<path d="M0.000244141 959.924L2445 959.924V-19.6434L0.000244141 -19.6434V959.924Z" fill="white"/>
</mask>
<g mask="url(#mask0_4717_64295)">
<path d="M387.867 -1.31641L377.462 18.7997L367.057 -1.31641H387.867Z" fill="#F8F8F8"/>
<path d="M310.94 0.919922L304.017 14.2821L297.139 0.919922H310.94Z" fill="#F8F8F8"/>
<path d="M340.765 14.6719L351.91 36.2457H329.576L340.765 14.6719Z" fill="#E0E0E0"/>
<path d="M414.16 11.0762L428.135 38.0434H400.229L414.16 11.0762Z" fill="#E0E0E0"/>
<path d="M463.45 -2.67578L450.911 21.5705L438.373 -2.67578H463.45Z" fill="#E0E0E0"/>
<path d="M233.232 3.69141L230.62 8.74473L228.008 3.69141H233.232Z" fill="#F8F8F8"/>
<path d="M267.316 19.8125L274.456 33.6606H260.133L267.316 19.8125Z" fill="#E0E0E0"/>
<path d="M356.221 66.4199L340.766 96.3026L325.311 66.4199H356.221Z" fill="#F8F8F8"/>
<path d="M377.468 76.1387L396.015 111.949H358.922L377.468 76.1387Z" fill="#F8F8F8"/>
<path d="M432.189 64.7578L414.165 99.5966L396.141 64.7578H432.189Z" fill="#E0E0E0"/>
<path d="M487.604 9.51758L502.754 38.8171H472.453L487.604 9.51758Z" fill="#F8F8F8"/>
<path d="M537.592 -3.15625L524.313 22.4991L511.078 -3.15625H537.592Z" fill="#F8F8F8"/>
<path d="M193.875 25.793L196.4 30.6519H191.35L193.875 25.793Z" fill="#E0E0E0"/>
<path d="M278.852 68.9473L267.314 91.2499L255.777 68.9473H278.852Z" fill="#E0E0E0"/>
<path d="M304.018 79.8789L319.648 110.102H288.389L304.018 79.8789Z" fill="#F8F8F8"/>
<path d="M397.665 134.342L377.465 173.359L357.264 134.342H397.665Z" fill="#E0E0E0"/>
<path d="M450.91 74.332L470.85 112.864H430.971L450.91 74.332Z" fill="#F8F8F8"/>
<path d="M506.552 64.1836L487.614 100.772L468.676 64.1836H506.552Z" fill="#F8F8F8"/>
<path d="M561.056 8.78906L576.773 39.1576H545.34L561.056 8.78906Z" fill="#E0E0E0"/>
<path d="M611.259 -3.3125L597.763 22.7315L584.311 -3.3125H611.259Z" fill="#F8F8F8"/>
<path d="M200.011 72.4395L193.872 84.2467L187.777 72.4395H200.011Z" fill="#E0E0E0"/>
<path d="M230.62 86.4785L241.112 106.789H220.084L230.62 86.4785Z" fill="#F8F8F8"/>
<path d="M321.565 136.041L304.02 169.957L286.475 136.041H321.565Z" fill="#F8F8F8"/>
<path d="M340.764 145.863L360.225 183.569H321.26L340.764 145.863Z" fill="#F8F8F8"/>
<path d="M414.167 143.918L435.195 184.539H393.139L414.167 143.918Z" fill="#F8F8F8"/>
<path d="M471.986 133.764L450.914 174.53L429.799 133.764H471.986Z" fill="#E0E0E0"/>
<path d="M524.312 73.6035L544.817 113.204H503.85L524.312 73.6035Z" fill="#F8F8F8"/>
<path d="M580.339 63.9355L561.053 101.252L541.723 63.9355H580.339Z" fill="#F8F8F8"/>
<path d="M634.459 8.93945L650.089 39.1136H618.873L634.459 8.93945Z" fill="#E0E0E0"/>
<path d="M684.485 -3.15625L671.206 22.4991L657.928 -3.15625H684.485Z" fill="#E0E0E0"/>
<path d="M122.252 75.1602L120.424 78.7072L118.639 75.1602H122.252Z" fill="#F8F8F8"/>
<path d="M157.17 93.2891L162.394 103.396H151.945L157.17 93.2891Z" fill="#F8F8F8"/>
<path d="M243.244 139.154L230.618 163.643L217.949 139.154H243.244Z" fill="#F8F8F8"/>
<path d="M267.32 150.383L283.297 181.286H251.342L267.32 150.383Z" fill="#F8F8F8"/>
<path d="M360.966 205.281L340.765 244.347L320.564 205.281H360.966Z" fill="#E0E0E0"/>
<path d="M377.463 214.619L398.708 255.677H356.217L377.463 214.619Z" fill="#F8F8F8"/>
<path d="M435.326 204.697L414.168 245.561L393.053 204.697H435.326Z" fill="#E0E0E0"/>
<path d="M487.615 143.621L508.861 184.679H466.369L487.615 143.621Z" fill="#F8F8F8"/>
<path d="M545.603 133.67L524.314 174.728L503.068 133.67H545.603Z" fill="#F8F8F8"/>
<path d="M597.758 73.6035L618.263 113.204H577.252L597.758 73.6035Z" fill="#E0E0E0"/>
<path d="M653.792 63.9355L634.462 101.252L615.176 63.9355H653.792Z" fill="#E0E0E0"/>
<path d="M707.912 9.51758L723.063 38.8171H692.762L707.912 9.51758Z" fill="#E0E0E0"/>
<path d="M757.623 -2.97266L744.65 22.0996L731.676 -2.97266H757.623Z" fill="#E0E0E0"/>
<path d="M83.7215 98.7773L84.6793 100.624H82.7637L83.7215 98.7773Z" fill="#E0E0E0"/>
<path d="M164.482 142.609L157.168 156.798L149.854 142.609H164.482Z" fill="#E0E0E0"/>
<path d="M193.873 157.574L204.321 177.739H183.424L193.873 157.574Z" fill="#E0E0E0"/>
<path d="M284.559 207.229L267.319 240.512L250.078 207.229H284.559Z" fill="#F8F8F8"/>
<path d="M304.024 216.994L323.398 254.457H284.65L304.024 216.994Z" fill="#F8F8F8"/>
<path d="M398.843 275.547L377.466 316.799L356.09 275.547H398.843Z" fill="#F8F8F8"/>
<path d="M450.914 214.561L472.159 255.667H429.668L450.914 214.561Z" fill="#E0E0E0"/>
<path d="M508.861 204.607L487.615 245.714L466.369 204.607H508.861Z" fill="#E0E0E0"/>
<path d="M561.058 143.484L582.391 184.786H539.682L561.058 143.484Z" fill="#F8F8F8"/>
<path d="M619.136 133.564L597.759 174.866L576.383 133.564H619.136Z" fill="#E0E0E0"/>
<path d="M671.204 74.043L691.362 113.012H651.047L671.204 74.043Z" fill="#F8F8F8"/>
<path d="M726.629 64.3262L707.908 100.477L689.188 64.3262H726.629Z" fill="#F8F8F8"/>
<path d="M781.352 10.4883L795.719 38.3301H766.941L781.352 10.4883Z" fill="#E0E0E0"/>
<path d="M829.808 -2.19727L818.054 20.5427L806.299 -2.19727H829.808Z" fill="#E0E0E0"/>
<path d="M85.9466 145.91L83.7262 150.235L81.5059 145.91H85.9466Z" fill="#E0E0E0"/>
<path d="M120.426 164.318L125.607 174.328H115.289L120.426 164.318Z" fill="#E0E0E0"/>
<path d="M205.713 210.68L193.871 233.565L182.029 210.68H205.713Z" fill="#F8F8F8"/>
<path d="M230.614 222.627L245.59 251.635H215.594L230.614 222.627Z" fill="#F8F8F8"/>
<path d="M323.608 276.664L304.017 314.564L284.426 276.664H323.608Z" fill="#E0E0E0"/>
<path d="M340.763 286.133L361.53 326.365H319.953L340.763 286.133Z" fill="#E0E0E0"/>
<path d="M414.165 285.404L435.541 326.705H392.832L414.165 285.404Z" fill="#E0E0E0"/>
<path d="M472.238 275.547L450.906 316.848L429.529 275.547H472.238Z" fill="#E0E0E0"/>
<path d="M524.311 214.416L545.688 255.717H502.979L524.311 214.416Z" fill="#F8F8F8"/>
<path d="M582.391 204.559L561.058 245.86L539.682 204.559H582.391Z" fill="#F8F8F8"/>
<path d="M634.455 143.621L655.744 184.679H613.209L634.455 143.621Z" fill="#F8F8F8"/>
<path d="M692.064 133.902L671.21 174.232L650.312 133.902H692.064Z" fill="#E0E0E0"/>
<path d="M744.648 75.5039L763.63 112.286H725.623L744.648 75.5039Z" fill="#F8F8F8"/>
<path d="M798.462 65.3496L781.352 98.4392L764.242 65.3496H798.462Z" fill="#E0E0E0"/>
<path d="M854.795 13.166L867.073 36.9749H842.475L854.795 13.166Z" fill="#E0E0E0"/>
<path d="M900.593 -0.443359L891.494 17.0975L882.395 -0.443359H900.593Z" fill="#E0E0E0"/>
<path d="M47.0253 169.674L48.0702 171.666H45.9805L47.0253 169.674Z" fill="#E0E0E0"/>
<path d="M127.045 214.08L120.428 226.811L113.854 214.08H127.045Z" fill="#E0E0E0"/>
<path d="M157.17 229.043L167.183 248.43H147.156L157.17 229.043Z" fill="#F8F8F8"/>
<path d="M246.599 279.002L230.621 309.905L214.6 279.002H246.599Z" fill="#F8F8F8"/>
<path d="M267.318 289.635L285.429 324.619H249.207L267.318 289.635Z" fill="#E0E0E0"/>
<path d="M361.394 346.969L340.758 386.861L320.078 346.969H361.394Z" fill="#E0E0E0"/>
<path d="M377.465 357.027L398.319 397.357H356.611L377.465 357.027Z" fill="#F8F8F8"/>
<path d="M435.407 346.58L414.162 387.638L392.916 346.58H435.407Z" fill="#E0E0E0"/>
<path d="M487.616 285.604L508.818 326.613H466.414L487.616 285.604Z" fill="#E0E0E0"/>
<path d="M545.561 275.641L524.315 316.602L503.113 275.641H545.561Z" fill="#F8F8F8"/>
<path d="M597.759 214.416L619.136 255.717H576.383L597.759 214.416Z" fill="#F8F8F8"/>
<path d="M655.71 204.654L634.464 245.664L613.262 204.654H655.71Z" fill="#F8F8F8"/>
<path d="M707.91 144.891L728.198 184.054H687.666L707.91 144.891Z" fill="#F8F8F8"/>
<path d="M764.067 134.822L744.65 172.382L725.189 134.822H764.067Z" fill="#E0E0E0"/>
<path d="M818.049 78.3691L834.854 110.827H801.244L818.049 78.3691Z" fill="#E0E0E0"/>
<path d="M869.166 67.0918L854.799 94.8851L840.389 67.0918H869.166Z" fill="#F8F8F8"/>
<path d="M928.202 17.8809L936.866 34.6443H919.582L928.202 17.8809Z" fill="#F8F8F8"/>
<path d="M970.162 2.03906L964.938 12.1457L959.67 2.03906H970.162Z" fill="#F8F8F8"/>
<path d="M49.1136 216.949L47.0239 221.031L44.8906 216.949H49.1136Z" fill="#E0E0E0"/>
<path d="M83.7228 235.994L88.3812 244.983H79.0645L83.7228 235.994Z" fill="#F8F8F8"/>
<path d="M168.447 282.01L157.171 303.827L145.852 282.01H168.447Z" fill="#F8F8F8"/>
<path d="M193.875 294.795L207.981 322.054H179.77L193.875 294.795Z" fill="#F8F8F8"/>
<path d="M285.734 348.379L267.318 383.995L248.902 348.379H285.734Z" fill="#E0E0E0"/>
<path d="M304.021 358.539L323.743 396.633H284.299L304.021 358.539Z" fill="#F8F8F8"/>
<path d="M397.972 418.061L377.467 457.661L356.961 418.061H397.972Z" fill="#F8F8F8"/>
<path d="M450.901 357.027L471.755 397.357H430.004L450.901 357.027Z" fill="#F8F8F8"/>
<path d="M508.594 346.732L487.61 387.305L466.625 346.732H508.594Z" fill="#E0E0E0"/>
<path d="M561.059 285.9L582.043 326.473H540.074L561.059 285.9Z" fill="#E0E0E0"/>
<path d="M618.742 275.795L597.758 316.319L576.773 275.795H618.742Z" fill="#E0E0E0"/>
<path d="M671.21 215.102L692.064 255.431H650.312L671.21 215.102Z" fill="#F8F8F8"/>
<path d="M728.063 205.34L707.905 244.309L687.748 205.34H728.063Z" fill="#F8F8F8"/>
<path d="M781.345 147.857L799.282 182.55H763.408L781.345 147.857Z" fill="#E0E0E0"/>
<path d="M834.638 136.678L818.05 168.698L801.463 136.678H834.638Z" fill="#F8F8F8"/>
<path d="M891.496 84.0547L903.904 108.009H879.088L891.496 84.0547Z" fill="#F8F8F8"/>
<path d="M938.166 69.959L928.196 89.2005L918.227 69.959H938.166Z" fill="#F8F8F8"/>
<path d="M1001.65 23.9082L1005.65 31.634H997.641L1001.65 23.9082Z" fill="#E0E0E0"/>
<path d="M1039.61 4.56445L1038.35 6.99394L1037.13 4.56445H1039.61Z" fill="#F8F8F8"/>
<path d="M10.2824 240.072L11.7626 242.939H8.8457L10.2824 240.072Z" fill="#F8F8F8"/>
<path d="M90.0415 285.213L83.7288 297.409L77.416 285.213H90.0415Z" fill="#E0E0E0"/>
<path d="M120.428 300.574L130.093 319.135H110.807L120.428 300.574Z" fill="#E0E0E0"/>
<path d="M209.067 350.471L193.873 379.819L178.723 350.471H209.067Z" fill="#E0E0E0"/>
<path d="M230.618 361.846L247.771 394.984H213.465L230.618 361.846Z" fill="#F8F8F8"/>
<path d="M323.828 418.496L304.019 456.736L284.254 418.496H323.828Z" fill="#F8F8F8"/>
<path d="M340.76 429.086L360.786 467.812H320.689L340.76 429.086Z" fill="#F8F8F8"/>
<path d="M414.163 428.945L434.321 467.914H394.006L414.163 428.945Z" fill="#E0E0E0"/>
<path d="M471.026 418.303L450.913 457.174L430.799 418.303H471.026Z" fill="#E0E0E0"/>
<path d="M524.312 357.514L544.817 397.114H503.85L524.312 357.514Z" fill="#F8F8F8"/>
<path d="M581.653 346.969L561.06 386.812L540.424 346.969H581.653Z" fill="#E0E0E0"/>
<path d="M634.455 285.9L655.44 326.473H613.471L634.455 285.9Z" fill="#F8F8F8"/>
<path d="M692.064 275.844L671.21 316.173L650.312 275.844H692.064Z" fill="#E0E0E0"/>
<path d="M744.654 217.336L763.766 254.313H725.498L744.654 217.336Z" fill="#F8F8F8"/>
<path d="M798.979 206.943L781.347 241.053L763.715 206.943H798.979Z" fill="#E0E0E0"/>
<path d="M854.791 153.25L868.549 179.877H840.99L854.791 153.25Z" fill="#E0E0E0"/>
<path d="M903.164 139.836L891.496 162.382L879.828 139.836H903.164Z" fill="#F8F8F8"/>
<path d="M964.949 90.5625L972.307 104.751H957.592L964.949 90.5625Z" fill="#E0E0E0"/>
<path d="M1006.35 73.3203L1001.64 82.4552L996.941 73.3203H1006.35Z" fill="#E0E0E0"/>
<path d="M1075.09 28.5156L1075.52 29.3423H1074.65L1075.09 28.5156Z" fill="#F8F8F8"/>
<path d="M13.7161 287.061L10.2767 293.717L6.88086 287.061H13.7161Z" fill="#E0E0E0"/>
<path d="M47.0297 305.383L52.9072 316.753H41.1523L47.0297 305.383Z" fill="#E0E0E0"/>
<path d="M132.137 352.758L120.426 375.303L108.758 352.758H132.137Z" fill="#F8F8F8"/>
<path d="M157.165 365.629L171.358 393.082H142.973L157.165 365.629Z" fill="#E0E0E0"/>
<path d="M248.29 419.854L230.614 454.061L212.895 419.854H248.29Z" fill="#F8F8F8"/>
<path d="M267.318 430.596L286.169 467.038H248.467L267.318 430.596Z" fill="#E0E0E0"/>
<path d="M360.443 489.529L340.764 527.575L321.086 489.529H360.443Z" fill="#E0E0E0"/>
<path d="M377.462 500.85L396.879 538.361H358.045L377.462 500.85Z" fill="#E0E0E0"/>
<path d="M433.58 489.729L414.163 527.24L394.746 489.729H433.58Z" fill="#E0E0E0"/>
<path d="M487.616 429.863L507.034 467.423H468.199L487.616 429.863Z" fill="#E0E0E0"/>
<path d="M543.731 418.746L524.314 456.257L504.896 418.746H543.731Z" fill="#F8F8F8"/>
<path d="M597.757 357.957L617.914 396.926H577.6L597.757 357.957Z" fill="#E0E0E0"/>
<path d="M654.964 347.07L634.458 386.671L613.996 347.07H654.964Z" fill="#F8F8F8"/>
<path d="M707.91 286.822L728.198 326.034H687.666L707.91 286.822Z" fill="#F8F8F8"/>
<path d="M763.851 276.906L744.651 314.077L725.408 276.906H763.851Z" fill="#F8F8F8"/>
<path d="M818.046 221.617L833.85 252.18H802.242L818.046 221.617Z" fill="#F8F8F8"/>
<path d="M868.114 209.701L854.791 235.502L841.426 209.701H868.114Z" fill="#E0E0E0"/>
<path d="M928.201 159.756L936.952 176.616H919.494L928.201 159.756Z" fill="#F8F8F8"/>
<path d="M971.474 143.092L964.943 155.774L958.369 143.092H971.474Z" fill="#F8F8F8"/>
<path d="M1038.34 96.7285L1040.91 101.685H1035.82L1038.34 96.7285Z" fill="#F8F8F8"/>
<path d="M1076.05 75.752L1075.09 77.5984L1074.13 75.752H1076.05Z" fill="#E0E0E0"/>
<path d="M55.7795 354.6L47.0287 371.557L38.2344 354.6H55.7795Z" fill="#F8F8F8"/>
<path d="M83.722 369.471L94.9109 391.142H72.5332L83.722 369.471Z" fill="#E0E0E0"/>
<path d="M172.496 421.361L157.171 451.05L141.803 421.361H172.496Z" fill="#F8F8F8"/>
<path d="M193.878 433.416L210.595 465.68H177.203L193.878 433.416Z" fill="#F8F8F8"/>
<path d="M286.077 490.115L267.313 526.412L248.549 490.115H286.077Z" fill="#E0E0E0"/>
<path d="M304.019 501.006L323.349 538.323H284.732L304.019 501.006Z" fill="#E0E0E0"/>
<path d="M396.398 561.012L377.46 597.6L358.521 561.012H396.398Z" fill="#E0E0E0"/>
<path d="M450.912 501.971L469.459 537.83H432.322L450.912 501.971Z" fill="#E0E0E0"/>
<path d="M505.986 490.412L487.614 525.883L469.285 490.412H505.986Z" fill="#E0E0E0"/>
<path d="M561.06 430.785L579.781 466.984H542.34L561.06 430.785Z" fill="#F8F8F8"/>
<path d="M616.825 418.977L597.756 455.759L578.73 418.977H616.825Z" fill="#E0E0E0"/>
<path d="M671.203 358.102L691.23 396.828H651.133L671.203 358.102Z" fill="#E0E0E0"/>
<path d="M727.972 347.361L707.902 386.087L687.875 347.361H727.972Z" fill="#F8F8F8"/>
<path d="M781.349 289.197L799.765 324.813H762.934L781.349 289.197Z" fill="#E0E0E0"/>
<path d="M834.555 278.66L818.054 310.535L801.598 278.66H834.555Z" fill="#F8F8F8"/>
<path d="M891.5 228.08L902.297 248.925H880.703L891.5 228.08Z" fill="#E0E0E0"/>
<path d="M936.561 212.91L928.202 229.09L919.887 212.91H936.561Z" fill="#F8F8F8"/>
<path d="M1001.64 166.408L1005.17 173.259H998.115L1001.64 166.408Z" fill="#F8F8F8"/>
<path d="M1040.35 146.051L1038.35 149.889L1036.39 146.051H1040.35Z" fill="#E0E0E0"/>
<path d="M10.2774 372.092L19.4636 389.827H1.13477L10.2774 372.092Z" fill="#F8F8F8"/>
<path d="M97.3475 422.482L83.7206 448.818L70.0938 422.482H97.3475Z" fill="#F8F8F8"/>
<path d="M120.42 435.797L135.265 464.465H105.617L120.42 435.797Z" fill="#F8F8F8"/>
<path d="M211.332 490.99L193.874 524.711L176.459 490.99H211.332Z" fill="#F8F8F8"/>
<path d="M230.621 502.355L248.819 537.632H212.379L230.621 502.355Z" fill="#E0E0E0"/>
<path d="M322.957 561.012L304.018 597.6L285.08 561.012H322.957Z" fill="#F8F8F8"/>
<path d="M340.762 572.912L359.308 608.82H322.172L340.762 572.912Z" fill="#E0E0E0"/>
<path d="M414.168 573.844L432.062 608.391H396.318L414.168 573.844Z" fill="#F8F8F8"/>
<path d="M468.416 561.928L450.914 595.746L433.369 561.928H468.416Z" fill="#E0E0E0"/>
<path d="M524.312 503.727L541.509 536.962H507.115L524.312 503.727Z" fill="#F8F8F8"/>
<path d="M578.557 490.943L561.055 524.81L543.51 490.943H578.557Z" fill="#E0E0E0"/>
<path d="M634.459 430.943L653.093 466.9H615.869L634.459 430.943Z" fill="#E0E0E0"/>
<path d="M690.492 418.795L671.205 456.112L651.875 418.795H690.492Z" fill="#F8F8F8"/>
<path d="M744.65 358.881L764.067 396.489H725.189L744.65 358.881Z" fill="#F8F8F8"/>
<path d="M800.375 348.043L781.35 384.777L762.324 348.043H800.375Z" fill="#E0E0E0"/>
<path d="M854.8 293.959L869.515 322.433H840.041L854.8 293.959Z" fill="#F8F8F8"/>
<path d="M903.164 281.762L891.496 304.356L879.828 281.762H903.164Z" fill="#F8F8F8"/>
<path d="M964.943 234.541L970.69 245.668H959.152L964.943 234.541Z" fill="#E0E0E0"/>
<path d="M1005 216.164L1001.64 222.626L998.336 216.164H1005Z" fill="#E0E0E0"/>
<path d="M1075.09 170.252L1075.66 171.37H1074.52L1075.09 170.252Z" fill="#E0E0E0"/>
<path d="M22.3781 423.449L10.275 446.821L-1.82812 423.449H22.3781Z" fill="#E0E0E0"/>
<path d="M47.0307 437.014L60.8752 463.835H33.1426L47.0307 437.014Z" fill="#F8F8F8"/>
<path d="M136.669 491.768L120.43 523.156L104.234 491.768H136.669Z" fill="#F8F8F8"/>
<path d="M157.17 503.824L174.28 536.914H140.061L157.17 503.824Z" fill="#F8F8F8"/>
<path d="M248.638 561.588L230.614 596.427L212.59 561.588H248.638Z" fill="#E0E0E0"/>
<path d="M267.319 573.5L285.43 608.533H249.164L267.319 573.5Z" fill="#E0E0E0"/>
<path d="M358.266 632.869L340.764 666.736L323.219 632.869H358.266Z" fill="#E0E0E0"/>
<path d="M377.464 646.135L394.312 678.69H360.615L377.464 646.135Z" fill="#E0E0E0"/>
<path d="M431.232 633.213L414.165 666.157L397.143 633.213H431.232Z" fill="#E0E0E0"/>
<path d="M487.616 576.166L503.681 607.215H471.551L487.616 576.166Z" fill="#F8F8F8"/>
<path d="M540.332 562.861L524.31 593.862L508.289 562.861H540.332Z" fill="#E0E0E0"/>
<path d="M597.764 504.795L614.134 536.427H581.395L597.764 504.795Z" fill="#F8F8F8"/>
<path d="M651.661 491.133L634.464 524.368L617.311 491.133H651.661Z" fill="#F8F8F8"/>
<path d="M707.904 430.451L726.886 467.136H688.922L707.904 430.451Z" fill="#E0E0E0"/>
<path d="M764.067 418.699L744.65 456.308L725.189 418.699H764.067Z" fill="#E0E0E0"/>
<path d="M818.052 360.625L836.163 395.61H799.984L818.052 360.625Z" fill="#F8F8F8"/>
<path d="M870.821 349.938L854.799 380.938L838.734 349.938H870.821Z" fill="#F8F8F8"/>
<path d="M928.196 300.088L938.21 319.378H918.227L928.196 300.088Z" fill="#E0E0E0"/>
<path d="M971.343 285.168L964.943 297.558L958.543 285.168H971.343Z" fill="#E0E0E0"/>
<path d="M1038.35 239.98L1039.92 242.944H1036.82L1038.35 239.98Z" fill="#E0E0E0"/>
<path d="M1075.48 218.064L1075.09 218.843L1074.7 218.064H1075.48Z" fill="#F8F8F8"/>
<path d="M63.0927 491.861L47.0278 522.91L30.9629 491.861H63.0927Z" fill="#E0E0E0"/>
<path d="M83.7232 504.352L100.441 536.615H67.0488L83.7232 504.352Z" fill="#F8F8F8"/>
<path d="M174.237 562.176L157.17 595.217L140.061 562.176H174.237Z" fill="#E0E0E0"/>
<path d="M193.87 574.566L211.197 607.996H176.586L193.87 574.566Z" fill="#E0E0E0"/>
<path d="M284.517 633.117L267.32 666.352L250.123 633.117H284.517Z" fill="#F8F8F8"/>
<path d="M304.02 646.135L320.868 678.69H287.215L304.02 646.135Z" fill="#E0E0E0"/>
<path d="M393.478 704.834L377.457 735.786L361.436 704.834H393.478Z" fill="#F8F8F8"/>
<path d="M450.913 648.037L466.238 677.725H435.545L450.913 648.037Z" fill="#F8F8F8"/>
<path d="M502.634 634.527L487.614 663.535L472.594 634.527H502.634Z" fill="#F8F8F8"/>
<path d="M561.051 578.109L575.593 606.243H546.467L561.051 578.109Z" fill="#E0E0E0"/>
<path d="M612.652 563.58L597.762 592.394L582.873 563.58H612.652Z" fill="#E0E0E0"/>
<path d="M671.204 504.164L688.053 536.719H654.355L671.204 504.164Z" fill="#F8F8F8"/>
<path d="M726.063 490.553L707.908 525.586L689.797 490.553H726.063Z" fill="#F8F8F8"/>
<path d="M781.352 429.963L800.682 467.377H762.021L781.352 429.963Z" fill="#F8F8F8"/>
<path d="M836.815 419.178L818.051 455.426L799.33 419.178H836.815Z" fill="#F8F8F8"/>
<path d="M891.495 365.484L905.819 393.132H877.172L891.495 365.484Z" fill="#E0E0E0"/>
<path d="M939.736 352.854L928.199 375.108L916.705 352.854H939.736Z" fill="#E0E0E0"/>
<path d="M1001.64 307.08L1006.21 315.875H997.068L1001.64 307.08Z" fill="#E0E0E0"/>
<path d="M1040.35 288.037L1038.35 291.827L1036.39 288.037H1040.35Z" fill="#F8F8F8"/>
<path d="M10.2776 504.602L26.8214 536.525H-6.22266L10.2776 504.602Z" fill="#E0E0E0"/>
<path d="M101.049 562.035L83.722 595.562L66.3945 562.035H101.049Z" fill="#F8F8F8"/>
<path d="M120.431 575.102L137.323 607.754H103.582L120.431 575.102Z" fill="#E0E0E0"/>
<path d="M210.156 633.703L193.874 665.141L177.635 633.703H210.156Z" fill="#F8F8F8"/>
<path d="M230.621 647.207L246.599 678.159H214.6L230.621 647.207Z" fill="#E0E0E0"/>
<path d="M319.736 705.033L304.019 735.402L288.303 705.033H319.736Z" fill="#F8F8F8"/>
<path d="M340.76 719.174L355.997 748.668H325.479L340.76 719.174Z" fill="#E0E0E0"/>
<path d="M414.166 719.461L429.186 748.469H399.189L414.166 719.461Z" fill="#E0E0E0"/>
<path d="M465.454 705.756L450.913 733.889L436.328 705.756H465.454Z" fill="#E0E0E0"/>
<path d="M524.313 650.713L537.592 676.417H511.078L524.313 650.713Z" fill="#E0E0E0"/>
<path d="M574.159 635.689L561.054 661.102L547.906 635.689H574.159Z" fill="#E0E0E0"/>
<path d="M634.462 578.547L648.699 606H620.27L634.462 578.547Z" fill="#E0E0E0"/>
<path d="M686.744 563.146L671.201 593.272L655.615 563.146H686.744Z" fill="#E0E0E0"/>
<path d="M744.651 502.123L763.067 537.788H726.191L744.651 502.123Z" fill="#F8F8F8"/>
<path d="M800.419 489.92L781.35 526.799L762.281 489.92H800.419Z" fill="#F8F8F8"/>
<path d="M854.796 431.857L872.646 466.405H836.902L854.796 431.857Z" fill="#E0E0E0"/>
<path d="M907.211 421.125L891.494 451.542L875.777 421.125H907.211Z" fill="#E0E0E0"/>
<path d="M964.945 371.76L974.349 390.029H955.498L964.945 371.76Z" fill="#E0E0E0"/>
<path d="M1007.57 356.449L1001.65 367.868L995.768 356.449H1007.57Z" fill="#F8F8F8"/>
<path d="M1075.09 311.848L1075.96 313.5H1074.22L1075.09 311.848Z" fill="#E0E0E0"/>
<path d="M28.0466 561.787L10.2837 596.043L-7.43555 561.787H28.0466Z" fill="#E0E0E0"/>
<path d="M47.0271 573.936L64.8334 608.337H29.2207L47.0271 573.936Z" fill="#F8F8F8"/>
<path d="M136.621 633.752L120.425 664.995L104.273 633.752H136.621Z" fill="#E0E0E0"/>
<path d="M157.171 648.037L172.539 677.725H141.803L157.171 648.037Z" fill="#E0E0E0"/>
<path d="M245.506 705.564L230.617 734.378L215.684 705.564H245.506Z" fill="#E0E0E0"/>
<path d="M267.317 719.852L282.032 748.276H252.602L267.317 719.852Z" fill="#F8F8F8"/>
<path d="M354.652 777.184L340.764 804.054L326.832 777.184H354.652Z" fill="#F8F8F8"/>
<path d="M377.466 792.445L390.919 818.489H364.014L377.466 792.445Z" fill="#F8F8F8"/>
<path d="M428.103 777.184L414.171 804.054L400.283 777.184H428.103Z" fill="#F8F8F8"/>
<path d="M487.613 721.889L500.761 747.252H474.465L487.613 721.889Z" fill="#F8F8F8"/>
<path d="M536.852 707.07L524.313 731.268L511.818 707.07H536.852Z" fill="#E0E0E0"/>
<path d="M597.755 652.16L609.945 675.678H585.564L597.755 652.16Z" fill="#E0E0E0"/>
<path d="M647.307 635.889L634.464 660.718L621.664 635.889H647.307Z" fill="#E0E0E0"/>
<path d="M707.906 576.609L723.623 606.978H692.189L707.906 576.609Z" fill="#F8F8F8"/>
<path d="M762.022 561.977L744.651 595.649L727.236 561.977H762.022Z" fill="#E0E0E0"/>
<path d="M818.047 501.1L837.29 538.271H798.848L818.047 501.1Z" fill="#F8F8F8"/>
<path d="M873.473 490.162L854.796 526.313L836.119 490.162H873.473Z" fill="#F8F8F8"/>
<path d="M928.195 436.525L942.475 464.076H913.959L928.195 436.525Z" fill="#F8F8F8"/>
<path d="M975.919 424.133L964.948 445.415L953.934 424.133H975.919Z" fill="#F8F8F8"/>
<path d="M1038.34 378.754L1042.39 386.528H1034.34L1038.34 378.754Z" fill="#E0E0E0"/>
<path d="M1076.7 359.221L1075.09 362.33L1073.48 359.221H1076.7Z" fill="#E0E0E0"/>
<path d="M64.6576 632.775L47.0254 666.934L29.3496 632.775H64.6576Z" fill="#E0E0E0"/>
<path d="M83.7251 646.727L100.095 678.407H67.3555L83.7251 646.727Z" fill="#E0E0E0"/>
<path d="M171.407 705.955L157.171 733.505L142.891 705.955H171.407Z" fill="#F8F8F8"/>
<path d="M193.875 721.018L207.676 747.693H180.074L193.875 721.018Z" fill="#E0E0E0"/>
<path d="M280.769 777.426L267.317 803.47L253.82 777.426H280.769Z" fill="#E0E0E0"/>
<path d="M304.019 792.883L317.166 818.247H290.914L304.019 792.883Z" fill="#E0E0E0"/>
<path d="M389.832 849.15L377.468 873.056L365.104 849.15H389.832Z" fill="#F8F8F8"/>
<path d="M450.911 793.275L463.711 818.056H438.111L450.911 793.275Z" fill="#F8F8F8"/>
<path d="M500.107 778.062L487.612 802.26L475.117 778.062H500.107Z" fill="#F8F8F8"/>
<path d="M561.057 724.08L572.464 746.188H549.607L561.057 724.08Z" fill="#F8F8F8"/>
<path d="M609.204 707.801L597.754 729.86L586.348 707.801H609.204Z" fill="#E0E0E0"/>
<path d="M671.205 651.291L684.048 676.12H658.361L671.205 651.291Z" fill="#F8F8F8"/>
<path d="M722.485 634.812L707.901 662.946L693.359 634.812H722.485Z" fill="#F8F8F8"/>
<path d="M781.351 573.545L799.419 608.529H763.24L781.351 573.545Z" fill="#F8F8F8"/>
<path d="M837.036 560.963L818.054 597.648L799.072 560.963H837.036Z" fill="#E0E0E0"/>
<path d="M891.497 503.389L908.955 537.11H874.039L891.497 503.389Z" fill="#E0E0E0"/>
<path d="M943.523 492.348L928.198 521.939L912.873 492.348H943.523Z" fill="#E0E0E0"/>
<path d="M1001.64 443.709L1010.31 460.472H992.98L1001.64 443.709Z" fill="#F8F8F8"/>
<path d="M1043.57 427.869L1038.35 437.976L1033.12 427.869H1043.57Z" fill="#F8F8F8"/>
<path d="M1111.8 383.41L1112.19 384.188H1111.4L1111.8 383.41Z" fill="#E0E0E0"/>
<path d="M10.2793 644.688L28.2598 679.429H-7.70117L10.2793 644.688Z" fill="#E0E0E0"/>
<path d="M99.3087 705.08L83.7227 735.254L68.1367 705.08H99.3087Z" fill="#F8F8F8"/>
<path d="M120.429 720.869L134.361 747.788H106.541L120.429 720.869Z" fill="#F8F8F8"/>
<path d="M206.365 778.062L193.87 802.26L181.375 778.062H206.365Z" fill="#E0E0E0"/>
<path d="M230.619 793.85L242.983 817.756H218.211L230.619 793.85Z" fill="#E0E0E0"/>
<path d="M315.777 849.537L304.022 872.228L292.268 849.537H315.777Z" fill="#E0E0E0"/>
<path d="M340.765 866.002L352.215 888.159H329.271L340.765 866.002Z" fill="#F8F8F8"/>
<path d="M414.171 865.182L426.274 888.553H402.111L414.171 865.182Z" fill="#E0E0E0"/>
<path d="M462.973 849.338L450.914 872.661L438.811 849.338H462.973Z" fill="#F8F8F8"/>
<path d="M524.315 795.453L535.46 816.978H513.213L524.315 795.453Z" fill="#F8F8F8"/>
<path d="M571.854 779.18L561.057 800.073L550.217 779.18H571.854Z" fill="#F8F8F8"/>
<path d="M634.459 724.473L645.604 745.998H623.357L634.459 724.473Z" fill="#E0E0E0"/>
<path d="M683.4 707.312L671.21 730.83L659.02 707.312H683.4Z" fill="#E0E0E0"/>
<path d="M744.65 647.789L760.193 677.866H729.064L744.65 647.789Z" fill="#F8F8F8"/>
<path d="M798.418 633.162L781.352 666.203L764.242 633.162H798.418Z" fill="#E0E0E0"/>
<path d="M854.799 572.67L873.52 608.918H836.035L854.799 572.67Z" fill="#E0E0E0"/>
<path d="M909.262 561.74L891.499 596.093L873.736 561.74H909.262Z" fill="#F8F8F8"/>
<path d="M964.946 508.678L978.311 534.479H951.58L964.946 508.678Z" fill="#E0E0E0"/>
<path d="M1011.66 495.756L1001.64 515.143L991.631 495.756H1011.66Z" fill="#F8F8F8"/>
<path d="M1075.09 450.418L1078.57 457.172H1071.56L1075.09 450.418Z" fill="#E0E0E0"/>
<path d="M1112.93 430.498L1111.79 432.733L1110.66 430.498H1112.93Z" fill="#E0E0E0"/>
<path d="M27.7417 703.912L10.2837 737.633L-7.13086 703.912H27.7417Z" fill="#F8F8F8"/>
<path d="M47.0279 717.711L63.3975 749.343H30.6582L47.0279 717.711Z" fill="#E0E0E0"/>
<path d="M133.577 777.67L120.429 803.034L107.324 777.67H133.577Z" fill="#E0E0E0"/>
<path d="M157.172 794.529L169.014 817.415H145.33L157.172 794.529Z" fill="#E0E0E0"/>
<path d="M241.718 849.926L230.616 871.451L219.471 849.926H241.718Z" fill="#E0E0E0"/>
<path d="M267.319 866.828L278.116 887.722H256.479L267.319 866.828Z" fill="#E0E0E0"/>
<path d="M351.565 921.102L340.768 942.044L329.928 921.102H351.565Z" fill="#E0E0E0"/>
<path d="M377.466 937.77L388.263 958.712H366.625L377.466 937.77Z" fill="#E0E0E0"/>
<path d="M425.614 920.715L414.164 942.823L402.758 920.715H425.614Z" fill="#F8F8F8"/>
<path d="M487.616 866.393L498.761 887.918H476.471L487.616 866.393Z" fill="#F8F8F8"/>
<path d="M535.159 850.117L524.319 871.059L513.521 850.117H535.159Z" fill="#F8F8F8"/>
<path d="M597.759 796.379L608.164 816.495H587.354L597.759 796.379Z" fill="#E0E0E0"/>
<path d="M645.208 779.227L634.454 799.974L623.744 779.227H645.208Z" fill="#F8F8F8"/>
<path d="M707.906 721.889L721.054 747.252H694.758L707.906 721.889Z" fill="#E0E0E0"/>
<path d="M759.623 705.467L744.647 734.475L729.627 705.467H759.623Z" fill="#F8F8F8"/>
<path d="M818.05 644.92L835.813 679.273H800.287L818.05 644.92Z" fill="#E0E0E0"/>
<path d="M873.171 632.334L854.799 667.853L836.383 632.334H873.171Z" fill="#F8F8F8"/>
<path d="M928.199 575.441L944.83 607.559H911.611L928.199 575.441Z" fill="#F8F8F8"/>
<path d="M979.262 563.973L964.939 591.669L950.615 563.973H979.262Z" fill="#F8F8F8"/>
<path d="M1038.34 516.162L1045.92 530.739H1030.81L1038.34 516.162Z" fill="#E0E0E0"/>
<path d="M1079.75 499.199L1075.09 508.237L1070.44 499.199H1079.75Z" fill="#E0E0E0"/>
<path d="M1148.49 454.691L1148.66 454.983H1148.36L1148.49 454.691Z" fill="#E0E0E0"/>
<path d="M62.5679 776.111L47.0255 806.188L31.4395 776.111H62.5679Z" fill="#E0E0E0"/>
<path d="M83.7262 792.055L97.4837 818.682H69.9688L83.7262 792.055Z" fill="#E0E0E0"/>
<path d="M167.973 850.117L157.176 871.059L146.336 850.117H167.973Z" fill="#E0E0E0"/>
<path d="M193.866 867.607L204.097 887.335H183.635L193.866 867.607Z" fill="#E0E0E0"/>
<path d="M277.55 921.494L267.319 941.27L257.088 921.494H277.55Z" fill="#F8F8F8"/>
<path d="M304.02 938.549L314.251 958.325H293.789L304.02 938.549Z" fill="#F8F8F8"/>
<path d="M450.909 937.77L461.706 958.712H440.068L450.909 937.77Z" fill="#F8F8F8"/>
<path d="M498.45 921.102L487.61 942.044L476.812 921.102H498.45Z" fill="#F8F8F8"/>
<path d="M561.055 867.607L571.286 887.335H550.824L561.055 867.607Z" fill="#E0E0E0"/>
<path d="M607.859 850.605L597.759 870.09L587.658 850.605H607.859Z" fill="#E0E0E0"/>
<path d="M671.208 795.068L682.614 817.177H659.758L671.208 795.068Z" fill="#F8F8F8"/>
<path d="M720.703 777.871L707.903 802.652L695.104 777.871H720.703Z" fill="#F8F8F8"/>
<path d="M781.351 718.15L797.373 749.151H765.33L781.351 718.15Z" fill="#E0E0E0"/>
<path d="M835.51 703.912L818.052 737.633L800.594 703.912H835.51Z" fill="#F8F8F8"/>
<path d="M891.496 644.439L909.651 679.521H873.342L891.496 644.439Z" fill="#E0E0E0"/>
<path d="M945.348 633.117L928.194 666.304L911.041 633.117H945.348Z" fill="#F8F8F8"/>
<path d="M1001.64 581.129L1013.83 604.743H989.451L1001.64 581.129Z" fill="#E0E0E0"/>
<path d="M1047.36 567.379L1038.34 584.823L1029.33 567.379H1047.36Z" fill="#E0E0E0"/>
<path d="M1111.79 522.045L1114.75 527.779H1108.83L1111.79 522.045Z" fill="#E0E0E0"/>
<path d="M1149.37 501.678L1148.5 503.33L1147.67 501.678H1149.37Z" fill="#E0E0E0"/>
<path d="M10.272 788.697L26.6417 820.329H-6.09766L10.272 788.697Z" fill="#E0E0E0"/>
<path d="M96.5271 848.857L83.7274 873.59L70.9277 848.857H96.5271Z" fill="#F8F8F8"/>
<path d="M120.426 866.828L131.266 887.722H109.629L120.426 866.828Z" fill="#E0E0E0"/>
<path d="M203.404 921.93L193.87 940.345L184.379 921.93H203.404Z" fill="#E0E0E0"/>
<path d="M230.613 939.279L240.278 957.986H220.904L230.613 939.279Z" fill="#E0E0E0"/>
<path d="M524.311 938.75L534.411 958.234H514.254L524.311 938.75Z" fill="#F8F8F8"/>
<path d="M571.158 921.598L561.057 941.082L550.957 921.598H571.158Z" fill="#F8F8F8"/>
<path d="M634.459 867.607L644.69 887.335H624.271L634.459 867.607Z" fill="#E0E0E0"/>
<path d="M682.353 849.926L671.208 871.451L660.062 849.926H682.353Z" fill="#E0E0E0"/>
<path d="M744.645 791.424L758.882 818.974H730.365L744.645 791.424Z" fill="#E0E0E0"/>
<path d="M797.07 776.023L781.353 806.392L765.637 776.023H797.07Z" fill="#E0E0E0"/>
<path d="M854.796 715.326L873.038 750.554H836.555L854.796 715.326Z" fill="#F8F8F8"/>
<path d="M909.872 703.324L891.499 738.843L873.127 703.324H909.872Z" fill="#F8F8F8"/>
<path d="M964.948 647.16L980.969 678.16H948.883L964.948 647.16Z" fill="#E0E0E0"/>
<path d="M1015.19 635.451L1001.65 661.641L988.105 635.451H1015.19Z" fill="#F8F8F8"/>
<path d="M1075.09 587.049L1082.71 601.771H1067.47L1075.09 587.049Z" fill="#F8F8F8"/>
<path d="M1116.36 570.242L1111.79 579.086L1107.22 570.242H1116.36Z" fill="#F8F8F8"/>
<path d="M1185.23 525.346L1185.67 526.172H1184.8L1185.23 525.346Z" fill="#E0E0E0"/>
<path d="M25.5658 847.299L10.2846 876.744L-4.95312 847.299H25.5658Z" fill="#F8F8F8"/>
<path d="M47.0208 863.289L60.6042 889.527H33.4375L47.0208 863.289Z" fill="#F8F8F8"/>
<path d="M130.525 921.598L120.424 941.082L110.367 921.598H130.525Z" fill="#E0E0E0"/>
<path d="M157.171 939.871L166.357 957.655H147.984L157.171 939.871Z" fill="#E0E0E0"/>
<path d="M597.759 938.75L607.859 958.234H587.658L597.759 938.75Z" fill="#F8F8F8"/>
<path d="M644.905 921.4L634.456 941.516L624.051 921.4H644.905Z" fill="#F8F8F8"/>
<path d="M707.903 864.645L720.398 888.842H695.408L707.903 864.645Z" fill="#E0E0E0"/>
<path d="M758.839 847.938L744.646 875.439L730.41 847.938H758.839Z" fill="#E0E0E0"/>
<path d="M818.053 787.777L835.162 820.818H800.986L818.053 787.777Z" fill="#F8F8F8"/>
<path d="M872.904 774.465L854.793 809.498L836.639 774.465H872.904Z" fill="#F8F8F8"/>
<path d="M928.195 715.281L946.48 750.606H909.953L928.195 715.281Z" fill="#E0E0E0"/>
<path d="M981.877 704.258L964.941 737.007L948.006 704.258H981.877Z" fill="#F8F8F8"/>
<path d="M1038.35 651.73L1050.88 675.88H1025.85L1038.35 651.73Z" fill="#E0E0E0"/>
<path d="M1084.76 637.928L1075.1 656.683L1065.39 637.928H1084.76Z" fill="#F8F8F8"/>
<path d="M1148.5 591.623L1152.59 599.495H1144.45L1148.5 591.623Z" fill="#F8F8F8"/>
<path d="M1187.06 572.035L1185.23 575.534L1183.41 572.035H1187.06Z" fill="#F8F8F8"/>
<path d="M59.8259 919.842L47.0262 944.574L34.2266 919.842H59.8259Z" fill="#E0E0E0"/>
<path d="M83.7295 937.58L94.7442 958.814H72.7148L83.7295 937.58Z" fill="#F8F8F8"/>
<path d="M671.208 937.002L682.614 959.11H659.758L671.208 937.002Z" fill="#F8F8F8"/>
<path d="M720.398 920.039L707.903 944.188L695.408 920.039H720.398Z" fill="#F8F8F8"/>
<path d="M781.355 860.564L797.028 890.836H765.682L781.355 860.564Z" fill="#E0E0E0"/>
<path d="M835.253 846.037L818.056 879.272L800.859 846.037H835.253Z" fill="#F8F8F8"/>
<path d="M891.504 785.055L910.704 822.177H872.305L891.504 785.055Z" fill="#E0E0E0"/>
<path d="M947.176 773.883L928.194 810.568L909.256 773.883H947.176Z" fill="#F8F8F8"/>
<path d="M1001.65 717.322L1018.32 749.586H984.971L1001.65 717.322Z" fill="#F8F8F8"/>
<path d="M1052.76 705.908L1038.35 733.701L1023.98 705.908H1052.76Z" fill="#E0E0E0"/>
<path d="M1111.79 655.367L1121.5 674.074H1102.12L1111.79 655.367Z" fill="#E0E0E0"/>
<path d="M1155.37 639.783L1148.49 653L1141.66 639.783H1155.37Z" fill="#F8F8F8"/>
<path d="M1221.94 594.102L1224.11 598.232H1219.8L1221.94 594.102Z" fill="#F8F8F8"/>
<path d="M1259.25 572.818L1258.68 573.937L1258.12 572.818H1259.25Z" fill="#E0E0E0"/>
<path d="M10.28 934.615L23.5585 960.271H-2.95508L10.28 934.615Z" fill="#F8F8F8"/>
<path d="M744.648 933.25L758.972 960.995H730.281L744.648 933.25Z" fill="#E0E0E0"/>
<path d="M797.07 917.955L781.353 948.324L765.637 917.955H797.07Z" fill="#F8F8F8"/>
<path d="M854.791 856.826L873.338 892.734H836.201L854.791 856.826Z" fill="#E0E0E0"/>
<path d="M911.177 844.434L891.499 882.479L871.82 844.434H911.177Z" fill="#F8F8F8"/>
<path d="M964.942 785.004L984.142 822.175H945.699L964.942 785.004Z" fill="#E0E0E0"/>
<path d="M1019.97 774.32L1001.65 809.742L983.316 774.32H1019.97Z" fill="#E0E0E0"/>
<path d="M1075.09 719.949L1089.71 748.228H1060.46L1075.09 719.949Z" fill="#E0E0E0"/>
<path d="M1124.11 707.215L1111.79 731.024L1099.52 707.215H1124.11Z" fill="#E0E0E0"/>
<path d="M1185.24 658.332L1192.6 672.569H1177.84L1185.24 658.332Z" fill="#F8F8F8"/>
<path d="M1226.77 641.088L1221.94 650.369L1217.15 641.088H1226.77Z" fill="#F8F8F8"/>
<path d="M1295.39 595.945L1296.09 597.306H1294.65L1295.39 595.945Z" fill="#F8F8F8"/>
<path d="M818.049 929.324L835.464 962.948H800.635L818.049 929.324Z" fill="#E0E0E0"/>
<path d="M873.519 916.008L854.799 952.207L836.078 916.008H873.519Z" fill="#F8F8F8"/>
<path d="M928.193 854.49L948.568 893.896H907.818L928.193 854.49Z" fill="#E0E0E0"/>
<path d="M985.185 844.047L964.94 883.21L944.652 844.047H985.185Z" fill="#F8F8F8"/>
<path d="M1038.34 786.029L1056.8 821.646H1019.93L1038.34 786.029Z" fill="#E0E0E0"/>
<path d="M1092.11 775.145L1075.09 808.088L1058.02 775.145H1092.11Z" fill="#F8F8F8"/>
<path d="M1148.49 722.084L1161.46 747.156H1135.56L1148.49 722.084Z" fill="#F8F8F8"/>
<path d="M1195.56 708.525L1185.24 728.447L1174.92 708.525H1195.56Z" fill="#E0E0E0"/>
<path d="M1258.68 661.102L1263.91 671.208H1253.41L1258.68 661.102Z" fill="#F8F8F8"/>
<path d="M1298.21 642.352L1295.39 647.842L1292.51 642.352H1298.21Z" fill="#E0E0E0"/>
<path d="M1368.83 596.816V596.865H1368.79L1368.83 596.816Z" fill="#F8F8F8"/>
<path d="M891.497 925.822L911.61 964.694H871.383L891.497 925.822Z" fill="#F8F8F8"/>
<path d="M948.746 914.842L928.197 954.54L907.691 914.842H948.746Z" fill="#E0E0E0"/>
<path d="M1001.64 854.15L1022.28 894.091H981.008L1001.64 854.15Z" fill="#F8F8F8"/>
<path d="M1058.28 844.234L1038.34 882.766L1018.45 844.234H1058.28Z" fill="#E0E0E0"/>
<path d="M1111.79 786.76L1129.68 821.307H1093.9L1111.79 786.76Z" fill="#F8F8F8"/>
<path d="M1164.52 775.83L1148.5 806.733L1132.52 775.83H1164.52Z" fill="#E0E0E0"/>
<path d="M1221.94 724.516L1233.04 745.944H1210.84L1221.94 724.516Z" fill="#E0E0E0"/>
<path d="M1266.78 709.939L1258.68 725.585L1250.54 709.939H1266.78Z" fill="#F8F8F8"/>
<path d="M1332.08 663.73L1335.31 669.901H1328.91L1332.08 663.73Z" fill="#F8F8F8"/>
<path d="M1370.18 643.322L1368.83 645.946L1367.43 643.322H1370.18Z" fill="#F8F8F8"/>
<path d="M964.941 924.363L986.187 965.422H943.695L964.941 924.363Z" fill="#F8F8F8"/>
<path d="M1022.89 914.404L1001.65 955.463L980.402 914.404H1022.89Z" fill="#F8F8F8"/>
<path d="M1075.09 854.295L1095.6 893.993H1054.54L1075.09 854.295Z" fill="#F8F8F8"/>
<path d="M1131.51 844.387L1111.79 882.53L1092.07 844.387H1131.51Z" fill="#E0E0E0"/>
<path d="M1185.23 788.311L1201.87 820.526H1168.56L1185.23 788.311Z" fill="#E0E0E0"/>
<path d="M1236.18 776.939L1221.94 804.49L1207.7 776.939H1236.18Z" fill="#E0E0E0"/>
<path d="M1295.38 728.109L1303.66 744.144H1287.11L1295.38 728.109Z" fill="#E0E0E0"/>
<path d="M1337.66 711.588L1332.09 722.278L1326.56 711.588H1337.66Z" fill="#F8F8F8"/>
<path d="M1405.53 665.383L1407.45 669.076H1403.62L1405.53 665.383Z" fill="#F8F8F8"/>
<path d="M1038.34 924.217L1059.72 965.518H1017.01L1038.34 924.217Z" fill="#E0E0E0"/>
<path d="M1096.34 914.404L1075.09 955.463L1053.85 914.404H1096.34Z" fill="#F8F8F8"/>
<path d="M1148.49 854.732L1168.69 893.799H1128.33L1148.49 854.732Z" fill="#F8F8F8"/>
<path d="M1204.05 844.965L1185.24 881.358L1166.39 844.965H1204.05Z" fill="#F8F8F8"/>
<path d="M1258.68 791.424L1272.92 818.974H1244.4L1258.68 791.424Z" fill="#E0E0E0"/>
<path d="M1306.79 778.789L1295.38 800.849L1283.93 778.789H1306.79Z" fill="#E0E0E0"/>
<path d="M1368.83 731.117L1374.75 742.633H1362.87L1368.83 731.117Z" fill="#E0E0E0"/>
<path d="M1409.23 712.76L1405.53 719.951L1401.83 712.76H1409.23Z" fill="#E0E0E0"/>
<path d="M1111.79 924.076L1133.26 965.572H1090.33L1111.79 924.076Z" fill="#E0E0E0"/>
<path d="M1169.43 914.594L1148.49 955.02L1127.6 914.594H1169.43Z" fill="#E0E0E0"/>
<path d="M1221.94 856.676L1240.61 892.778H1203.26L1221.94 856.676Z" fill="#E0E0E0"/>
<path d="M1275.23 846.43L1258.68 878.45L1242.1 846.43H1275.23Z" fill="#F8F8F8"/>
<path d="M1332.09 795.361L1343.27 816.984H1320.9L1332.09 795.361Z" fill="#E0E0E0"/>
<path d="M1377.37 780.631L1368.83 797.151L1360.26 780.631H1377.37Z" fill="#F8F8F8"/>
<path d="M1442.24 732.727L1446.94 741.861H1437.54L1442.24 732.727Z" fill="#F8F8F8"/>
<path d="M1185.24 925.432L1205.66 964.886H1164.82L1185.24 925.432Z" fill="#F8F8F8"/>
<path d="M1241.45 915.527L1221.95 953.184L1202.48 915.527H1241.45Z" fill="#F8F8F8"/>
<path d="M1295.39 860.367L1311.23 890.979H1279.54L1295.39 860.367Z" fill="#E0E0E0"/>
<path d="M1345.59 848.42L1332.09 874.464L1318.64 848.42H1345.59Z" fill="#E0E0E0"/>
<path d="M1405.53 798.518L1414.28 815.427H1396.78L1405.53 798.518Z" fill="#E0E0E0"/>
<path d="M1449.33 781.562L1442.23 795.265L1435.18 781.562H1449.33Z" fill="#E0E0E0"/>
<path d="M1258.68 928.25L1276.92 963.477H1240.44L1258.68 928.25Z" fill="#E0E0E0"/>
<path d="M1311.89 917.457L1295.39 949.332L1278.88 917.457H1311.89Z" fill="#F8F8F8"/>
<path d="M1368.83 864.504L1381.45 888.896H1356.16L1368.83 864.504Z" fill="#F8F8F8"/>
<path d="M1416.11 850.26L1405.53 870.765L1394.95 850.26H1416.11Z" fill="#F8F8F8"/>
<path d="M1332.09 932.428L1347.07 961.387H1317.12L1332.09 932.428Z" fill="#E0E0E0"/>
<path d="M1382.2 919.453L1368.83 945.303L1355.46 919.453H1382.2Z" fill="#F8F8F8"/>
<path d="M1442.24 867.418L1452.64 887.437H1431.88L1442.24 867.418Z" fill="#F8F8F8"/>
<path d="M1405.54 936.896L1417.07 959.151H1394L1405.54 936.896Z" fill="#E0E0E0"/>
<path d="M1452.73 921.305L1442.23 941.615L1431.74 921.305H1452.73Z" fill="#E0E0E0"/>
<g opacity="0.5">
<g style="mix-blend-mode:color-burn">
<path d="M474.027 2.22266L437.761 72.2889L401.539 2.22266H474.027Z" fill="#E0E0E0"/>
</g>
<g style="mix-blend-mode:color-burn">
<path d="M488.436 14.6641L526.574 88.3746H450.342L488.436 14.6641Z" fill="#F8F8F8"/>
</g>
<g style="mix-blend-mode:color-burn">
<path d="M577.069 1.00977L539.149 74.3801L501.186 1.00977H577.069Z" fill="#E0E0E0"/>
</g>
<g style="mix-blend-mode:color-burn">
<path d="M367.316 6.05859L336.362 65.8239L305.451 6.05859H367.316Z" fill="#F8F8F8"/>
</g>
<g style="mix-blend-mode:color-burn">
<path d="M387.079 18.7012L421.864 85.9492H352.293L387.079 18.7012Z" fill="#F8F8F8"/>
</g>
<g style="mix-blend-mode:color-burn">
<path d="M526.792 98.7188L488.437 172.818L450.125 98.7188H526.792Z" fill="#F8F8F8"/>
</g>
<g style="mix-blend-mode:color-burn">
<path d="M589.833 14.6191L627.971 88.3782H551.695L589.833 14.6191Z" fill="#E0E0E0"/>
</g>
<g style="mix-blend-mode:color-burn">
<path d="M678.686 0.869141L640.549 74.6282L602.367 0.869141H678.686Z" fill="#E0E0E0"/>
</g>
<g style="mix-blend-mode:color-burn">
<path d="M256.256 13.0156L235.01 54.1225L213.721 13.0156H256.256Z" fill="#F8F8F8"/>
</g>
<g style="mix-blend-mode:color-burn">
<path d="M285.683 28.2168L312.632 80.3049H258.734L285.683 28.2168Z" fill="#F8F8F8"/>
</g>
<g style="mix-blend-mode:color-burn">
<path d="M422.259 101.006L387.082 168.983L351.904 101.006H422.259Z" fill="#E0E0E0"/>
</g>
<g style="mix-blend-mode:color-burn">
<path d="M437.758 113.59L475.112 185.794H400.447L437.758 113.59Z" fill="#E0E0E0"/>
</g>
<g style="mix-blend-mode:color-burn">
<path d="M539.154 112.377L577.51 186.525H500.799L539.154 112.377Z" fill="#E0E0E0"/>
</g>
<g style="mix-blend-mode:color-burn">
<path d="M628.188 98.7188L589.832 172.818L551.477 98.7188H628.188Z" fill="#E0E0E0"/>
</g>
<g style="mix-blend-mode:color-burn">
<path d="M691.223 14.3711L729.578 88.5189H652.867L691.223 14.3711Z" fill="#F8F8F8"/>
</g>
<g style="mix-blend-mode:color-burn">
<path d="M780.257 0.716797L741.902 74.8646L703.59 0.716797H780.257Z" fill="#F8F8F8"/>
</g>
<g style="mix-blend-mode:color-burn">
<path d="M145.414 19.7617L133.615 42.6474L121.773 19.7617H145.414Z" fill="#E0E0E0"/>
</g>
<g style="mix-blend-mode:color-burn">
<path d="M184.285 39.1016L202.309 73.8917H166.305L184.285 39.1016Z" fill="#F8F8F8"/>
</g>
<g style="mix-blend-mode:color-burn">
<path d="M314.371 105.67L285.681 161.111L256.99 105.67H314.371Z" fill="#F8F8F8"/>
</g>
<g style="mix-blend-mode:color-burn">
<path d="M336.363 119.525L368.841 182.303H303.885L336.363 119.525Z" fill="#E0E0E0"/>
</g>
<g style="mix-blend-mode:color-burn">
<path d="M474.804 197.656L437.754 269.277L400.705 197.656H474.804Z" fill="#E0E0E0"/>
</g>
<g style="mix-blend-mode:color-burn">
<path d="M488.435 211.455L525.92 283.854H450.994L488.435 211.455Z" fill="#F8F8F8"/>
</g>
<g style="mix-blend-mode:color-burn">
<path d="M577.291 196.871L539.153 270.582L501.016 196.871H577.291Z" fill="#E0E0E0"/>
</g>
<g style="mix-blend-mode:color-burn">
<path d="M640.547 112.721L678.598 186.285H602.453L640.547 112.721Z" fill="#E0E0E0"/>
</g>
<g style="mix-blend-mode:color-burn">
<path d="M729.273 98.918L691.223 172.483L653.172 98.918H729.273Z" fill="#F8F8F8"/>
</g>
<g style="mix-blend-mode:color-burn">
<path d="M792.619 14.3711L830.931 88.5189H754.264L792.619 14.3711Z" fill="#F8F8F8"/>
</g>
<g style="mix-blend-mode:color-burn">
<path d="M881.344 0.914062L843.293 74.5274L805.242 0.914062H881.344Z" fill="#F8F8F8"/>
</g>
<g style="mix-blend-mode:color-burn">
<path d="M36.005 25.5508L32.2173 32.8878L28.4297 25.5508H36.005Z" fill="#E0E0E0"/>
</g>
<g style="mix-blend-mode:color-burn">
<path d="M82.9318 50.8145L91.2908 66.9462H74.5293L82.9318 50.8145Z" fill="#F8F8F8"/>
</g>
<g style="mix-blend-mode:color-burn">
<path d="M204.575 111.695L184.287 150.907L164.043 111.695H204.575Z" fill="#F8F8F8"/>
</g>
<g style="mix-blend-mode:color-burn">
<path d="M235.008 128.166L260.303 177.144H209.67L235.008 128.166Z" fill="#F8F8F8"/>
</g>
<g style="mix-blend-mode:color-burn">
<path d="M369.448 200.52L336.36 264.415L303.316 200.52H369.448Z" fill="#E0E0E0"/>
</g>
<g style="mix-blend-mode:color-burn">
<path d="M387.079 213.98L422.43 282.346H351.684L387.079 213.98Z" fill="#F8F8F8"/>
</g>
<g style="mix-blend-mode:color-burn">
<path d="M525.224 295.846L488.436 366.932L451.691 295.846H525.224Z" fill="#F8F8F8"/>
</g>
<g style="mix-blend-mode:color-burn">
<path d="M589.824 211.455L627.309 283.854H552.383L589.824 211.455Z" fill="#F8F8F8"/>
</g>
<g style="mix-blend-mode:color-burn">
<path d="M678.209 197.211L640.55 269.998L602.848 197.211H678.209Z" fill="#E0E0E0"/>
</g>
<g style="mix-blend-mode:color-burn">
<path d="M741.901 113.199L779.56 185.987H704.242L741.901 113.199Z" fill="#E0E0E0"/>
</g>
<g style="mix-blend-mode:color-burn">
<path d="M830.283 99.209L792.624 171.996L754.965 99.209H830.283Z" fill="#E0E0E0"/>
</g>
<g style="mix-blend-mode:color-burn">
<path d="M893.974 15.4492L931.459 87.8964H856.533L893.974 15.4492Z" fill="#F8F8F8"/>
</g>
<g style="mix-blend-mode:color-burn">
<path d="M980.875 2.27539L944.696 72.2445L908.518 2.27539H980.875Z" fill="#F8F8F8"/>
</g>
<g style="mix-blend-mode:color-burn">
<path d="M94.2527 118.158L82.9333 140.024L71.5703 118.158H94.2527Z" fill="#E0E0E0"/>
</g>
<g style="mix-blend-mode:color-burn">
<path d="M133.616 137.979L150.9 171.36H116.332L133.616 137.979Z" fill="#E0E0E0"/>
</g>
<g style="mix-blend-mode:color-burn">
<path d="M262.22 204.695L235.01 257.366L207.756 204.695H262.22Z" fill="#E0E0E0"/>
</g>
<g style="mix-blend-mode:color-burn">
<path d="M285.692 219.566L316.472 279.089H254.912L285.692 219.566Z" fill="#F8F8F8"/>
</g>
<g style="mix-blend-mode:color-burn">
<path d="M422.564 296.723L387.082 365.38L351.557 296.723H422.564Z" fill="#F8F8F8"/>
</g>
<g style="mix-blend-mode:color-burn">
<path d="M437.75 311.25L473.755 380.782H401.789L437.75 311.25Z" fill="#F8F8F8"/>
</g>
<g style="mix-blend-mode:color-burn">
<path d="M539.149 310.959L575.328 380.928H502.971L539.149 310.959Z" fill="#E0E0E0"/>
</g>
<g style="mix-blend-mode:color-burn">
<path d="M625.963 296.338L589.828 366.113L553.736 296.338H625.963Z" fill="#E0E0E0"/>
</g>
<g style="mix-blend-mode:color-burn">
<path d="M691.228 212.283L728.016 283.37H654.439L691.228 212.283Z" fill="#F8F8F8"/>
</g>
<g style="mix-blend-mode:color-burn">
<path d="M778.912 197.701L741.906 269.177L704.943 197.701H778.912Z" fill="#E0E0E0"/>
</g>
<g style="mix-blend-mode:color-burn">
<path d="M843.301 113.199L880.96 185.987H805.643L843.301 113.199Z" fill="#F8F8F8"/>
</g>
<g style="mix-blend-mode:color-burn">
<path d="M931.459 99.3555L893.974 171.754L856.533 99.3555H931.459Z" fill="#E0E0E0"/>
</g>
<g style="mix-blend-mode:color-burn">
<path d="M995.371 19.2812L1029.68 85.6061H961.064L995.371 19.2812Z" fill="#F8F8F8"/>
</g>
<g style="mix-blend-mode:color-burn">
<path d="M1077.7 5.5293L1046.09 66.7037L1014.44 5.5293H1077.7Z" fill="#E0E0E0"/>
</g>
<g style="mix-blend-mode:color-burn">
<path d="M32.2194 146.143L42.7552 166.502H21.6836L32.2194 146.143Z" fill="#E0E0E0"/>
</g>
<g style="mix-blend-mode:color-burn">
<path d="M154.549 209.219L133.608 249.743L112.623 209.219H154.549Z" fill="#F8F8F8"/>
</g>
<g style="mix-blend-mode:color-burn">
<path d="M184.292 226.029L209.761 275.251H158.867L184.292 226.029Z" fill="#E0E0E0"/>
</g>
<g style="mix-blend-mode:color-burn">
<path d="M317.421 299.447L285.683 360.816L253.945 299.447H317.421Z" fill="#F8F8F8"/>
</g>
<g style="mix-blend-mode:color-burn">
<path d="M336.363 313.822L370.234 379.273H302.535L336.363 313.822Z" fill="#E0E0E0"/>
</g>
<g style="mix-blend-mode:color-burn">
<path d="M473.063 394.879L437.755 463.147L402.447 394.879H473.063Z" fill="#E0E0E0"/>
</g>
<g style="mix-blend-mode:color-burn">
<path d="M488.431 410.627L523.303 477.972H453.602L488.431 410.627Z" fill="#E0E0E0"/>
</g>
<g style="mix-blend-mode:color-burn">
<path d="M573.981 395.209L539.152 462.554L504.279 395.209H573.981Z" fill="#E0E0E0"/>
</g>
<g style="mix-blend-mode:color-burn">
<path d="M640.546 312.609L675.376 379.955H605.674L640.546 312.609Z" fill="#E0E0E0"/>
</g>
<g style="mix-blend-mode:color-burn">
<path d="M726.055 297.205L691.226 364.599L656.396 297.205H726.055Z" fill="#F8F8F8"/>
</g>
<g style="mix-blend-mode:color-burn">
<path d="M792.626 213.002L828.805 282.922H756.447L792.626 213.002Z" fill="#E0E0E0"/>
</g>
<g style="mix-blend-mode:color-burn">
<path d="M880.088 197.846L843.3 268.932L806.512 197.846H880.088Z" fill="#F8F8F8"/>
</g>
<g style="mix-blend-mode:color-burn">
<path d="M944.689 114.758L981.042 185.067H908.293L944.689 114.758Z" fill="#F8F8F8"/>
</g>
<g style="mix-blend-mode:color-burn">
<path d="M1029.89 101.492L995.368 168.206L960.844 101.492H1029.89Z" fill="#F8F8F8"/>
</g>
<g style="mix-blend-mode:color-burn">
<path d="M1096.77 26.5195L1125.15 81.3287H1068.38L1096.77 26.5195Z" fill="#F8F8F8"/>
</g>
<g style="mix-blend-mode:color-burn">
<path d="M1171.39 11.0742L1147.44 57.3802L1123.54 11.0742H1171.39Z" fill="#E0E0E0"/>
</g>
<g style="mix-blend-mode:color-burn">
<path d="M47.9768 212.957L32.2166 243.374L16.5 212.957H47.9768Z" fill="#F8F8F8"/>
</g>
<g style="mix-blend-mode:color-burn">
<path d="M82.936 232.541L103.006 271.413H62.8223L82.936 232.541Z" fill="#E0E0E0"/>
</g>
<g style="mix-blend-mode:color-burn">
<path d="M211.847 302.457L184.289 355.711L156.73 302.457H211.847Z" fill="#F8F8F8"/>
</g>
<g style="mix-blend-mode:color-burn">
<path d="M235.008 318.539L264.961 376.458H205.012L235.008 318.539Z" fill="#F8F8F8"/>
</g>
<g style="mix-blend-mode:color-burn">
<path d="M370.056 396.049L336.359 461.159L302.705 396.049H370.056Z" fill="#E0E0E0"/>
</g>
<g style="mix-blend-mode:color-burn">
<path d="M387.081 410.859L421.736 477.816H352.426L387.081 410.859Z" fill="#E0E0E0"/>
</g>
<g style="mix-blend-mode:color-burn">
<path d="M522.437 493.801L488.435 559.494L454.477 493.801H522.437Z" fill="#E0E0E0"/>
</g>
<g style="mix-blend-mode:color-burn">
<path d="M589.831 412.467L623.179 476.897H556.525L589.831 412.467Z" fill="#E0E0E0"/>
</g>
<g style="mix-blend-mode:color-burn">
<path d="M673.466 396.578L640.553 460.279L607.596 396.578H673.466Z" fill="#E0E0E0"/>
</g>
<g style="mix-blend-mode:color-burn">
<path d="M741.901 314.115L775.511 379.08H708.334L741.901 314.115Z" fill="#F8F8F8"/>
</g>
<g style="mix-blend-mode:color-burn">
<path d="M826.795 297.699L792.619 363.781L758.443 297.699H826.795Z" fill="#E0E0E0"/>
</g>
<g style="mix-blend-mode:color-burn">
<path d="M893.975 213.248L929.979 282.78H858.014L893.975 213.248Z" fill="#E0E0E0"/>
</g>
<g style="mix-blend-mode:color-burn">
<path d="M980.657 198.424L944.696 267.956L908.691 198.424H980.657Z" fill="#F8F8F8"/>
</g>
<g style="mix-blend-mode:color-burn">
<path d="M1046.09 118.793L1079.13 182.688H1013L1046.09 118.793Z" fill="#E0E0E0"/>
</g>
<g style="mix-blend-mode:color-burn">
<path d="M1126.32 105.039L1096.76 162.18L1067.2 105.039H1126.32Z" fill="#F8F8F8"/>
</g>
<g style="mix-blend-mode:color-burn">
<path d="M1198.16 37.4512L1217.49 74.8652H1178.79L1198.16 37.4512Z" fill="#E0E0E0"/>
</g>
<g style="mix-blend-mode:color-burn">
<path d="M1263.82 17.5332L1248.84 46.4926L1233.87 17.5332H1263.82Z" fill="#F8F8F8"/>
</g>
<g style="mix-blend-mode:color-burn">
<path d="M107.404 304.699L82.9367 351.977L58.4258 304.699H107.404Z" fill="#F8F8F8"/>
</g>
<g style="mix-blend-mode:color-burn">
<path d="M133.615 322.572L160.216 374.077H106.971L133.615 322.572Z" fill="#F8F8F8"/>
</g>
<g style="mix-blend-mode:color-burn">
<path d="M266.308 397.746L235.006 458.289L203.703 397.746H266.308Z" fill="#F8F8F8"/>
</g>
<g style="mix-blend-mode:color-burn">
<path d="M285.687 413.195L318.426 476.459H252.947L285.687 413.195Z" fill="#E0E0E0"/>
</g>
<g style="mix-blend-mode:color-burn">
<path d="M421.038 493.801L387.08 559.494L353.078 493.801H421.038Z" fill="#F8F8F8"/>
</g>
<g style="mix-blend-mode:color-burn">
<path d="M437.76 510.469L471.109 574.85H404.455L437.76 510.469Z" fill="#E0E0E0"/>
</g>
<g style="mix-blend-mode:color-burn">
<path d="M539.159 511.932L571.245 573.981H507.072L539.159 511.932Z" fill="#F8F8F8"/>
</g>
<g style="mix-blend-mode:color-burn">
<path d="M621.265 495.658L589.832 556.444L558.398 495.658H621.265Z" fill="#E0E0E0"/>
</g>
<g style="mix-blend-mode:color-burn">
<path d="M691.225 415.422L722.092 475.09H660.357L691.225 415.422Z" fill="#F8F8F8"/>
</g>
<g style="mix-blend-mode:color-burn">
<path d="M773.333 397.643L741.9 458.428L710.467 397.643H773.333Z" fill="#E0E0E0"/>
</g>
<g style="mix-blend-mode:color-burn">
<path d="M843.297 314.363L876.689 378.939H809.904L843.297 314.363Z" fill="#E0E0E0"/>
</g>
<g style="mix-blend-mode:color-burn">
<path d="M928.632 297.361L893.977 364.366L859.365 297.361H928.632Z" fill="#F8F8F8"/>
</g>
<g style="mix-blend-mode:color-burn">
<path d="M995.369 214.512L1030.29 282.051H960.453L995.369 214.512Z" fill="#F8F8F8"/>
</g>
<g style="mix-blend-mode:color-burn">
<path d="M1080.18 199.74L1046.09 265.725L1011.96 199.74H1080.18Z" fill="#E0E0E0"/>
</g>
<g style="mix-blend-mode:color-burn">
<path d="M1147.44 126.859L1173.91 177.927H1121.02L1147.44 126.859Z" fill="#F8F8F8"/>
</g>
<g style="mix-blend-mode:color-burn">
<path d="M1219.11 111.209L1198.17 151.733L1177.18 111.209H1219.11Z" fill="#F8F8F8"/>
</g>
<g style="mix-blend-mode:color-burn">
<path d="M1299.51 48.3867L1309.88 68.4057H1289.2L1299.51 48.3867Z" fill="#E0E0E0"/>
</g>
<g style="mix-blend-mode:color-burn">
<path d="M1356.2 23.9961L1350.23 35.5604L1344.23 23.9961H1356.2Z" fill="#E0E0E0"/>
</g>
<g style="mix-blend-mode:color-burn">
<path d="M3.26175 306.641L-18.4629 348.671L-40.1875 306.641H3.26175Z" fill="#E0E0E0"/>
</g>
<g style="mix-blend-mode:color-burn">
<path d="M32.2133 324.715L57.1161 372.819H7.31055L32.2133 324.715Z" fill="#F8F8F8"/>
</g>
<g style="mix-blend-mode:color-burn">
<path d="M162.742 399.303L133.616 455.618L104.49 399.303H162.742Z" fill="#F8F8F8"/>
</g>
<g style="mix-blend-mode:color-burn">
<path d="M184.287 415.627L215.024 475.004H153.551L184.287 415.627Z" fill="#F8F8F8"/>
</g>
<g style="mix-blend-mode:color-burn">
<path d="M318.029 495.02L285.681 557.554L253.334 495.02H318.029Z" fill="#E0E0E0"/>
</g>
<g style="mix-blend-mode:color-burn">
<path d="M336.36 511.393L368.925 574.316H303.838L336.36 511.393Z" fill="#E0E0E0"/>
</g>
<g style="mix-blend-mode:color-burn">
<path d="M469.195 593.66L437.761 654.446L406.328 593.66H469.195Z" fill="#E0E0E0"/>
</g>
<g style="mix-blend-mode:color-burn">
<path d="M488.435 612.217L518.693 670.622H458.221L488.435 612.217Z" fill="#E0E0E0"/>
</g>
<g style="mix-blend-mode:color-burn">
<path d="M569.763 594.242L539.157 653.424L508.551 594.242H569.763Z" fill="#E0E0E0"/>
</g>
<g style="mix-blend-mode:color-burn">
<path d="M640.55 515.92L669.371 571.652H611.729L640.55 515.92Z" fill="#F8F8F8"/>
</g>
<g style="mix-blend-mode:color-burn">
<path d="M719.964 497.59L691.23 553.176L662.496 497.59H719.964Z" fill="#E0E0E0"/>
</g>
<g style="mix-blend-mode:color-burn">
<path d="M792.623 417.23L822.01 474.032H763.236L792.623 417.23Z" fill="#F8F8F8"/>
</g>
<g style="mix-blend-mode:color-burn">
<path d="M874.162 398.088L843.295 457.756L812.428 398.088H874.162Z" fill="#F8F8F8"/>
</g>
<g style="mix-blend-mode:color-burn">
<path d="M944.696 313.588L978.741 379.427H910.65L944.696 313.588Z" fill="#E0E0E0"/>
</g>
<g style="mix-blend-mode:color-burn">
<path d="M1030.29 297.154L995.369 364.645L960.453 297.154H1030.29Z" fill="#E0E0E0"/>
</g>
<g style="mix-blend-mode:color-burn">
<path d="M1096.76 217.479L1129.24 280.305H1064.28L1096.76 217.479Z" fill="#F8F8F8"/>
</g>
<g style="mix-blend-mode:color-burn">
<path d="M1176.26 203.578L1147.44 259.262L1118.66 203.578H1176.26Z" fill="#F8F8F8"/>
</g>
<g style="mix-blend-mode:color-burn">
<path d="M1248.84 137.156L1266.78 171.849H1230.9L1248.84 137.156Z" fill="#E0E0E0"/>
</g>
<g style="mix-blend-mode:color-burn">
<path d="M1311.01 118.012L1299.51 140.217L1288.06 118.012H1311.01Z" fill="#E0E0E0"/>
</g>
<g style="mix-blend-mode:color-burn">
<path d="M1400.92 57.6172L1403.66 62.9135H1398.17L1400.92 57.6172Z" fill="#E0E0E0"/>
</g>
<g style="mix-blend-mode:color-burn">
<path d="M61.0347 399.541L32.2136 455.273L3.39258 399.541H61.0347Z" fill="#E0E0E0"/>
</g>
<g style="mix-blend-mode:color-burn">
<path d="M82.9379 416.545L112.891 474.464H52.9414L82.9379 416.545Z" fill="#F8F8F8"/>
</g>
<g style="mix-blend-mode:color-burn">
<path d="M214.977 496.238L184.284 555.469L153.635 496.238H214.977Z" fill="#E0E0E0"/>
</g>
<g style="mix-blend-mode:color-burn">
<path d="M235.009 513.188L266.05 573.244H203.924L235.009 513.188Z" fill="#E0E0E0"/>
</g>
<g style="mix-blend-mode:color-burn">
<path d="M367.229 594.049L336.361 653.717L305.494 594.049H367.229Z" fill="#F8F8F8"/>
</g>
<g style="mix-blend-mode:color-burn">
<path d="M387.087 612.217L417.301 670.622H356.873L387.087 612.217Z" fill="#E0E0E0"/>
</g>
<g style="mix-blend-mode:color-burn">
<path d="M517.211 693.555L488.433 749.141L459.699 693.555H517.211Z" fill="#F8F8F8"/>
</g>
<g style="mix-blend-mode:color-burn">
<path d="M589.832 615.418L617.39 668.721H562.273L589.832 615.418Z" fill="#F8F8F8"/>
</g>
<g style="mix-blend-mode:color-burn">
<path d="M667.454 596.857L640.549 648.946L613.6 596.857H667.454Z" fill="#F8F8F8"/>
</g>
<g style="mix-blend-mode:color-burn">
<path d="M741.905 519.17L768.07 569.703H715.783L741.905 519.17Z" fill="#E0E0E0"/>
</g>
<g style="mix-blend-mode:color-burn">
<path d="M819.358 499.01L792.626 550.758L765.852 499.01H819.358Z" fill="#E0E0E0"/>
</g>
<g style="mix-blend-mode:color-burn">
<path d="M893.974 416.205L924.232 474.658H863.76L893.974 416.205Z" fill="#F8F8F8"/>
</g>
<g style="mix-blend-mode:color-burn">
<path d="M977.22 396.875L944.698 459.799L912.133 396.875H977.22Z" fill="#F8F8F8"/>
</g>
<g style="mix-blend-mode:color-burn">
<path d="M1046.09 312.766L1080.79 379.868H1011.35L1046.09 312.766Z" fill="#F8F8F8"/>
</g>
<g style="mix-blend-mode:color-burn">
<path d="M1130.42 298.092L1096.76 363.153L1063.11 298.092H1130.42Z" fill="#F8F8F8"/>
</g>
<g style="mix-blend-mode:color-burn">
<path d="M1198.17 225.74L1223.85 275.399H1172.44L1198.17 225.74Z" fill="#E0E0E0"/>
</g>
<g style="mix-blend-mode:color-burn">
<path d="M1269.52 209.414L1248.84 249.403L1228.16 209.414H1269.52Z" fill="#E0E0E0"/>
</g>
<g style="mix-blend-mode:color-burn">
<path d="M1350.24 149.006L1358.42 164.797H1342.05L1350.24 149.006Z" fill="#E0E0E0"/>
</g>
<g style="mix-blend-mode:color-burn">
<path d="M1404.44 123.746L1400.92 130.549L1397.39 123.746H1404.44Z" fill="#F8F8F8"/>
</g>
<g style="mix-blend-mode:color-burn">
<path d="M-18.4611 416.934L11.1871 474.221H-48.1094L-18.4611 416.934Z" fill="#E0E0E0"/>
</g>
<g style="mix-blend-mode:color-burn">
<path d="M114.024 495.891L82.939 556.045L51.8105 495.891H114.024Z" fill="#F8F8F8"/>
</g>
<g style="mix-blend-mode:color-burn">
<path d="M133.618 514.113L163.875 572.664H103.316L133.618 514.113Z" fill="#E0E0E0"/>
</g>
<g style="mix-blend-mode:color-burn">
<path d="M264.179 595.262L235.01 651.723L205.797 595.262H264.179Z" fill="#F8F8F8"/>
</g>
<g style="mix-blend-mode:color-burn">
<path d="M285.683 614.016L314.417 669.554H256.949L285.683 614.016Z" fill="#E0E0E0"/>
</g>
<g style="mix-blend-mode:color-burn">
<path d="M415.249 693.99L387.081 748.459L358.869 693.99H415.249Z" fill="#F8F8F8"/>
</g>
<g style="mix-blend-mode:color-burn">
<path d="M437.757 713.674L465.142 766.588H410.373L437.757 713.674Z" fill="#E0E0E0"/>
</g>
<g style="mix-blend-mode:color-burn">
<path d="M539.158 714.203L566.107 766.243H512.209L539.158 714.203Z" fill="#E0E0E0"/>
</g>
<g style="mix-blend-mode:color-burn">
<path d="M615.953 695.453L589.831 745.986L563.709 695.453H615.953Z" fill="#E0E0E0"/>
</g>
<g style="mix-blend-mode:color-burn">
<path d="M691.23 619.996L715.045 666.059H667.416L691.23 619.996Z" fill="#E0E0E0"/>
</g>
<g style="mix-blend-mode:color-burn">
<path d="M765.499 599.283L741.903 644.86L718.35 599.283H765.499Z" fill="#E0E0E0"/>
</g>
<g style="mix-blend-mode:color-burn">
<path d="M843.299 519.951L868.812 569.27H817.787L843.299 519.951Z" fill="#E0E0E0"/>
</g>
<g style="mix-blend-mode:color-burn">
<path d="M921.925 498.182L893.975 552.165L866.068 498.182H921.925Z" fill="#E0E0E0"/>
</g>
<g style="mix-blend-mode:color-burn">
<path d="M995.371 412.711L1028.5 476.752H962.24L995.371 412.711Z" fill="#F8F8F8"/>
</g>
<g style="mix-blend-mode:color-burn">
<path d="M1080.31 395.652L1046.09 461.831L1011.83 395.652H1080.31Z" fill="#F8F8F8"/>
</g>
<g style="mix-blend-mode:color-burn">
<path d="M1147.44 315.967L1179.53 377.967H1115.35L1147.44 315.967Z" fill="#E0E0E0"/>
</g>
<g style="mix-blend-mode:color-burn">
<path d="M1226.37 301.971L1198.16 356.537L1169.91 301.971H1226.37Z" fill="#E0E0E0"/>
</g>
<g style="mix-blend-mode:color-burn">
<path d="M1299.51 236.373L1316.49 269.122H1282.58L1299.51 236.373Z" fill="#E0E0E0"/>
</g>
<g style="mix-blend-mode:color-burn">
<path d="M1360.81 216.639L1350.23 237.095L1339.65 216.639H1360.81Z" fill="#F8F8F8"/>
</g>
<g style="mix-blend-mode:color-burn">
<path d="M13.361 495.359L-18.464 556.922L-50.2891 495.359H13.361Z" fill="#E0E0E0"/>
</g>
<g style="mix-blend-mode:color-burn">
<path d="M32.2174 512.119L64.173 573.877H0.261719L32.2174 512.119Z" fill="#F8F8F8"/>
</g>
<g style="mix-blend-mode:color-burn">
<path d="M162.606 595.408L133.61 651.481L104.615 595.408H162.606Z" fill="#E0E0E0"/>
</g>
<g style="mix-blend-mode:color-burn">
<path d="M184.289 615.418L211.847 668.721H156.73L184.289 615.418Z" fill="#E0E0E0"/>
</g>
<g style="mix-blend-mode:color-burn">
<path d="M312.42 695.012L285.688 746.711L258.957 695.012H312.42Z" fill="#E0E0E0"/>
</g>
<g style="mix-blend-mode:color-burn">
<path d="M336.36 714.84L362.743 765.859H309.977L336.36 714.84Z" fill="#F8F8F8"/>
</g>
<g style="mix-blend-mode:color-burn">
<path d="M462.751 794.285L437.761 842.535L412.814 794.285H462.751Z" fill="#F8F8F8"/>
</g>
<g style="mix-blend-mode:color-burn">
<path d="M488.44 815.512L512.646 862.255H464.277L488.44 815.512Z" fill="#F8F8F8"/>
</g>
<g style="mix-blend-mode:color-burn">
<path d="M564.098 794.285L539.152 842.535L514.162 794.285H564.098Z" fill="#F8F8F8"/>
</g>
<g style="mix-blend-mode:color-burn">
<path d="M640.548 718.285L664.101 763.862H616.951L640.548 718.285Z" fill="#F8F8F8"/>
</g>
<g style="mix-blend-mode:color-burn">
<path d="M713.687 698.129L691.223 741.519L668.758 698.129H713.687Z" fill="#E0E0E0"/>
</g>
<g style="mix-blend-mode:color-burn">
<path d="M792.621 622.369L814.476 664.594H770.766L792.621 622.369Z" fill="#E0E0E0"/>
</g>
<g style="mix-blend-mode:color-burn">
<path d="M866.329 599.68L843.298 644.236L820.268 599.68H866.329Z" fill="#E0E0E0"/>
</g>
<g style="mix-blend-mode:color-burn">
<path d="M944.694 516.684L972.862 571.153H916.482L944.694 516.684Z" fill="#F8F8F8"/>
</g>
<g style="mix-blend-mode:color-burn">
<path d="M1026.63 495.797L995.368 556.194L964.152 495.797H1026.63Z" fill="#E0E0E0"/>
</g>
<g style="mix-blend-mode:color-burn">
<path d="M1096.76 411.004L1131.29 477.718H1062.24L1096.76 411.004Z" fill="#F8F8F8"/>
</g>
<g style="mix-blend-mode:color-burn">
<path d="M1180.96 396.145L1147.44 460.963L1113.92 396.145H1180.96Z" fill="#F8F8F8"/>
</g>
<g style="mix-blend-mode:color-burn">
<path d="M1248.84 323.885L1274.44 373.3H1223.29L1248.84 323.885Z" fill="#F8F8F8"/>
</g>
<g style="mix-blend-mode:color-burn">
<path d="M1319.28 308.092L1299.51 346.235L1279.79 308.092H1319.28Z" fill="#F8F8F8"/>
</g>
<g style="mix-blend-mode:color-burn">
<path d="M1400.91 248.133L1408.14 262.127H1393.68L1400.91 248.133Z" fill="#E0E0E0"/>
</g>
<g style="mix-blend-mode:color-burn">
<path d="M63.9084 593.461L32.214 654.732L0.519531 593.461H63.9084Z" fill="#E0E0E0"/>
</g>
<g style="mix-blend-mode:color-burn">
<path d="M82.9305 613.238L112.318 670.04H53.5L82.9305 613.238Z" fill="#E0E0E0"/>
</g>
<g style="mix-blend-mode:color-burn">
<path d="M209.882 695.842L184.282 745.306L158.727 695.842H209.882Z" fill="#F8F8F8"/>
</g>
<g style="mix-blend-mode:color-burn">
<path d="M235.009 716.785L259.781 764.743H210.193L235.009 716.785Z" fill="#E0E0E0"/>
</g>
<g style="mix-blend-mode:color-burn">
<path d="M360.564 794.865L336.358 841.608L312.195 794.865H360.564Z" fill="#E0E0E0"/>
</g>
<g style="mix-blend-mode:color-burn">
<path d="M387.081 816.24L410.634 861.817H363.484L387.081 816.24Z" fill="#E0E0E0"/>
</g>
<g style="mix-blend-mode:color-burn">
<path d="M510.637 894.279L488.433 937.184L466.273 894.279H510.637Z" fill="#F8F8F8"/>
</g>
<g style="mix-blend-mode:color-burn">
<path d="M589.825 816.971L612.812 861.382H566.838L589.825 816.971Z" fill="#F8F8F8"/>
</g>
<g style="mix-blend-mode:color-burn">
<path d="M662.976 796.08L640.555 839.471L618.09 796.08H662.976Z" fill="#F8F8F8"/>
</g>
<g style="mix-blend-mode:color-burn">
<path d="M741.898 721.975L762.404 761.624H721.393L741.898 721.975Z" fill="#F8F8F8"/>
</g>
<g style="mix-blend-mode:color-burn">
<path d="M813.126 699.49L792.621 739.139L772.115 699.49H813.126Z" fill="#E0E0E0"/>
</g>
<g style="mix-blend-mode:color-burn">
<path d="M893.976 620.92L917.05 665.477H870.945L893.976 620.92Z" fill="#F8F8F8"/>
</g>
<g style="mix-blend-mode:color-burn">
<path d="M970.818 597.449L944.696 647.982L918.574 597.449H970.818Z" fill="#F8F8F8"/>
</g>
<g style="mix-blend-mode:color-burn">
<path d="M1046.1 511.498L1078.53 574.276H1013.62L1046.1 511.498Z" fill="#F8F8F8"/>
</g>
<g style="mix-blend-mode:color-burn">
<path d="M1130.81 493.76L1096.77 559.599L1062.72 493.76H1130.81Z" fill="#E0E0E0"/>
</g>
<g style="mix-blend-mode:color-burn">
<path d="M1198.16 414.896L1229.47 475.439H1166.82L1198.16 414.896Z" fill="#E0E0E0"/>
</g>
<g style="mix-blend-mode:color-burn">
<path d="M1276.35 400.52L1248.84 453.677L1221.32 400.52H1276.35Z" fill="#E0E0E0"/>
</g>
<g style="mix-blend-mode:color-burn">
<path d="M1350.23 336.029L1365.82 366.106H1334.65L1350.23 336.029Z" fill="#F8F8F8"/>
</g>
<g style="mix-blend-mode:color-burn">
<path d="M1410.31 315.533L1400.91 333.657L1391.55 315.533H1410.31Z" fill="#F8F8F8"/>
</g>
<g style="mix-blend-mode:color-burn">
<path d="M-18.4597 609.689L13.8007 672.127H-50.7637L-18.4597 609.689Z" fill="#E0E0E0"/>
</g>
<g style="mix-blend-mode:color-burn">
<path d="M110.926 694.098L82.9319 748.227L54.8945 694.098H110.926Z" fill="#F8F8F8"/>
</g>
<g style="mix-blend-mode:color-burn">
<path d="M133.609 716.588L158.555 764.837H108.619L133.609 716.588Z" fill="#F8F8F8"/>
</g>
<g style="mix-blend-mode:color-burn">
<path d="M257.431 796.08L235.01 839.471L212.545 796.08H257.431Z" fill="#E0E0E0"/>
</g>
<g style="mix-blend-mode:color-burn">
<path d="M285.684 817.941L307.888 860.846H263.48L285.684 817.941Z" fill="#E0E0E0"/>
</g>
<g style="mix-blend-mode:color-burn">
<path d="M408.155 895.057L387.084 935.823L365.969 895.057H408.155Z" fill="#E0E0E0"/>
</g>
<g style="mix-blend-mode:color-burn">
<path d="M437.758 917.893L458.351 957.688H417.209L437.758 917.893Z" fill="#F8F8F8"/>
</g>
<g style="mix-blend-mode:color-burn">
<path d="M539.152 916.584L560.833 958.468H517.471L539.152 916.584Z" fill="#E0E0E0"/>
</g>
<g style="mix-blend-mode:color-burn">
<path d="M611.513 894.67L589.831 936.554L568.15 894.67H611.513Z" fill="#F8F8F8"/>
</g>
<g style="mix-blend-mode:color-burn">
<path d="M691.225 820.613L711.209 859.242H671.242L691.225 820.613Z" fill="#F8F8F8"/>
</g>
<g style="mix-blend-mode:color-burn">
<path d="M761.319 798.271L741.902 835.831L722.484 798.271H761.319Z" fill="#F8F8F8"/>
</g>
<g style="mix-blend-mode:color-burn">
<path d="M843.296 722.613L863.279 761.291H823.312L843.296 722.613Z" fill="#E0E0E0"/>
</g>
<g style="mix-blend-mode:color-burn">
<path d="M915.832 698.518L893.976 740.791L872.121 698.518H915.832Z" fill="#E0E0E0"/>
</g>
<g style="mix-blend-mode:color-burn">
<path d="M995.374 614.986L1023.32 668.969H967.467L995.374 614.986Z" fill="#F8F8F8"/>
</g>
<g style="mix-blend-mode:color-burn">
<path d="M1076.74 594.197L1046.09 653.477L1015.4 594.197H1076.74Z" fill="#E0E0E0"/>
</g>
<g style="mix-blend-mode:color-burn">
<path d="M1147.44 510.031L1181.1 575.093H1113.79L1147.44 510.031Z" fill="#E0E0E0"/>
</g>
<g style="mix-blend-mode:color-burn">
<path d="M1230.03 495.318L1198.16 556.979L1166.25 495.318H1230.03Z" fill="#F8F8F8"/>
</g>
<g style="mix-blend-mode:color-burn">
<path d="M1299.52 423.785L1323.5 470.14H1275.53L1299.52 423.785Z" fill="#E0E0E0"/>
</g>
<g style="mix-blend-mode:color-burn">
<path d="M1368.21 407.314L1350.23 442.105L1332.21 407.314H1368.21Z" fill="#F8F8F8"/>
</g>
<g style="mix-blend-mode:color-burn">
<path d="M12.8421 691.717L-18.4605 752.26L-49.8066 691.717H12.8421Z" fill="#F8F8F8"/>
</g>
<g style="mix-blend-mode:color-burn">
<path d="M32.223 711.195L61.61 768.045H2.83594L32.223 711.195Z" fill="#E0E0E0"/>
</g>
<g style="mix-blend-mode:color-burn">
<path d="M157.165 795.309L133.612 840.886L110.016 795.309H157.165Z" fill="#E0E0E0"/>
</g>
<g style="mix-blend-mode:color-burn">
<path d="M184.287 819.062L205.576 860.169H163.041L184.287 819.062Z" fill="#E0E0E0"/>
</g>
<g style="mix-blend-mode:color-burn">
<path d="M305.668 895.832L285.684 934.509L265.701 895.832H305.668Z" fill="#E0E0E0"/>
</g>
<g style="mix-blend-mode:color-burn">
<path d="M336.364 919.309L355.782 956.868H316.947L336.364 919.309Z" fill="#E0E0E0"/>
</g>
<g style="mix-blend-mode:color-burn">
<path d="M640.548 918.623L660.531 957.252H620.521L640.548 918.623Z" fill="#F8F8F8"/>
</g>
<g style="mix-blend-mode:color-burn">
<path d="M710.647 896.273L691.23 933.785L671.812 896.273H710.647Z" fill="#F8F8F8"/>
</g>
<g style="mix-blend-mode:color-burn">
<path d="M792.622 822.225L811.299 858.327H773.945L792.622 822.225Z" fill="#E0E0E0"/>
</g>
<g style="mix-blend-mode:color-burn">
<path d="M862.537 798.412L843.294 835.583L824.051 798.412H862.537Z" fill="#F8F8F8"/>
</g>
<g style="mix-blend-mode:color-burn">
<path d="M944.696 718.285L968.249 763.862H921.1L944.696 718.285Z" fill="#E0E0E0"/>
</g>
<g style="mix-blend-mode:color-burn">
<path d="M1022.32 694.873L995.371 746.961L968.422 694.873H1022.32Z" fill="#F8F8F8"/>
</g>
<g style="mix-blend-mode:color-burn">
<path d="M1096.77 610.174L1128.63 671.834H1064.85L1096.77 610.174Z" fill="#E0E0E0"/>
</g>
<g style="mix-blend-mode:color-burn">
<path d="M1180.45 592.543L1147.45 656.341L1114.45 592.543H1180.45Z" fill="#F8F8F8"/>
</g>
<g style="mix-blend-mode:color-burn">
<path d="M1248.84 514.703L1278.66 572.379H1219.02L1248.84 514.703Z" fill="#F8F8F8"/>
</g>
<g style="mix-blend-mode:color-burn">
<path d="M1325.25 499.785L1299.52 549.444L1273.83 499.785H1325.25Z" fill="#F8F8F8"/>
</g>
<g style="mix-blend-mode:color-burn">
<path d="M1400.91 436.467L1414.5 462.657H1387.37L1400.91 436.467Z" fill="#E0E0E0"/>
</g>
<g style="mix-blend-mode:color-burn">
<path d="M60.1696 792.148L32.2193 846.131L4.3125 792.148H60.1696Z" fill="#E0E0E0"/>
</g>
<g style="mix-blend-mode:color-burn">
<path d="M82.9337 814.885L107.619 862.648H58.2051L82.9337 814.885Z" fill="#E0E0E0"/>
</g>
<g style="mix-blend-mode:color-burn">
<path d="M203.705 896.273L184.288 933.785L164.871 896.273H203.705Z" fill="#E0E0E0"/>
</g>
<g style="mix-blend-mode:color-burn">
<path d="M235.009 920.619L253.338 956.09H216.637L235.009 920.619Z" fill="#E0E0E0"/>
</g>
<g style="mix-blend-mode:color-burn">
<path d="M741.899 920.619L760.271 956.09H723.57L741.899 920.619Z" fill="#E0E0E0"/>
</g>
<g style="mix-blend-mode:color-burn">
<path d="M810.734 897.193L792.623 932.226L774.512 897.193H810.734Z" fill="#E0E0E0"/>
</g>
<g style="mix-blend-mode:color-burn">
<path d="M893.97 819.996L914.476 859.645H873.465L893.97 819.996Z" fill="#F8F8F8"/>
</g>
<g style="mix-blend-mode:color-burn">
<path d="M967.676 795.742L944.688 840.153L921.701 795.742H967.676Z" fill="#F8F8F8"/>
</g>
<g style="mix-blend-mode:color-burn">
<path d="M1046.09 711.973L1074.82 767.559H1017.31L1046.09 711.973Z" fill="#E0E0E0"/>
</g>
<g style="mix-blend-mode:color-burn">
<path d="M1128.07 691.717L1096.77 752.26L1065.47 691.717H1128.07Z" fill="#F8F8F8"/>
</g>
<g style="mix-blend-mode:color-burn">
<path d="M1198.17 609.303L1230.78 672.324H1165.56L1198.17 609.303Z" fill="#E0E0E0"/>
</g>
<g style="mix-blend-mode:color-burn">
<path d="M1279.62 594.094L1248.84 653.616L1218.06 594.094H1279.62Z" fill="#F8F8F8"/>
</g>
<g style="mix-blend-mode:color-burn">
<path d="M1350.23 524.312L1372.13 566.634H1328.33L1350.23 524.312Z" fill="#E0E0E0"/>
</g>
<g style="mix-blend-mode:color-burn">
<path d="M1417.11 506.637L1400.91 537.88L1384.76 506.637H1417.11Z" fill="#E0E0E0"/>
</g>
<g style="mix-blend-mode:color-burn">
<path d="M-18.4606 809.203L10.9264 866.004H-47.8477L-18.4606 809.203Z" fill="#E0E0E0"/>
</g>
<g style="mix-blend-mode:color-burn">
<path d="M105.88 893.699L82.9364 938.11L59.9492 893.699H105.88Z" fill="#F8F8F8"/>
</g>
<g style="mix-blend-mode:color-burn">
<path d="M133.618 919.309L153.036 956.868H114.201L133.618 919.309Z" fill="#E0E0E0"/>
</g>
<g style="mix-blend-mode:color-burn">
<path d="M843.299 920.619L861.672 956.09H824.971L843.299 920.619Z" fill="#E0E0E0"/>
</g>
<g style="mix-blend-mode:color-burn">
<path d="M914.002 895.832L893.975 934.509L873.992 895.832H914.002Z" fill="#E0E0E0"/>
</g>
<g style="mix-blend-mode:color-burn">
<path d="M995.37 813.811L1020.97 863.275H969.814L995.37 813.811Z" fill="#E0E0E0"/>
</g>
<g style="mix-blend-mode:color-burn">
<path d="M1074.26 791.945L1046.09 846.463L1017.88 791.945H1074.26Z" fill="#E0E0E0"/>
</g>
<g style="mix-blend-mode:color-burn">
<path d="M1147.44 707.16L1180.18 770.424H1114.7L1147.44 707.16Z" fill="#F8F8F8"/>
</g>
<g style="mix-blend-mode:color-burn">
<path d="M1231.16 690.545L1198.16 754.295L1165.16 690.545H1231.16Z" fill="#F8F8F8"/>
</g>
<g style="mix-blend-mode:color-burn">
<path d="M1299.51 613.918L1328.33 669.602H1270.73L1299.51 613.918Z" fill="#E0E0E0"/>
</g>
<g style="mix-blend-mode:color-burn">
<path d="M1374.53 598.805L1350.24 645.742L1325.95 598.805H1374.53Z" fill="#F8F8F8"/>
</g>
<g style="mix-blend-mode:color-burn">
<path d="M1451.63 534.326L1465.26 560.759H1437.96L1451.63 534.326Z" fill="#F8F8F8"/>
</g>
<g style="mix-blend-mode:color-burn">
<path d="M8.92495 890.543L-18.4594 943.457L-45.8438 890.543H8.92495Z" fill="#F8F8F8"/>
</g>
<g style="mix-blend-mode:color-burn">
<path d="M32.2177 913.326L56.598 960.41H7.88086L32.2177 913.326Z" fill="#F8F8F8"/>
</g>
<g style="mix-blend-mode:color-burn">
<path d="M944.693 915.617L967.114 959.008H922.229L944.693 915.617Z" fill="#E0E0E0"/>
</g>
<g style="mix-blend-mode:color-burn">
<path d="M1020.88 891.9L995.368 941.219L969.855 891.9H1020.88Z" fill="#E0E0E0"/>
</g>
<g style="mix-blend-mode:color-burn">
<path d="M1096.77 807.645L1127.41 866.924H1066.07L1096.77 807.645Z" fill="#F8F8F8"/>
</g>
<g style="mix-blend-mode:color-burn">
<path d="M1180.01 788.844L1147.44 851.767L1114.92 788.844H1180.01Z" fill="#F8F8F8"/>
</g>
<g style="mix-blend-mode:color-burn">
<path d="M1248.84 707.068L1281.62 770.478H1216.06L1248.84 707.068Z" fill="#E0E0E0"/>
</g>
<g style="mix-blend-mode:color-burn">
<path d="M1329.94 692.385L1299.51 751.178L1269.12 692.385H1329.94Z" fill="#F8F8F8"/>
</g>
<g style="mix-blend-mode:color-burn">
<path d="M1400.91 621.65L1423.37 665.041H1378.48L1400.91 621.65Z" fill="#E0E0E0"/>
</g>
<g style="mix-blend-mode:color-burn">
<path d="M1469 603.77L1451.63 637.345L1434.21 603.77H1469Z" fill="#F8F8F8"/>
</g>
<g style="mix-blend-mode:color-burn">
<path d="M1046.09 908.764L1074.17 963.087H1017.97L1046.09 908.764Z" fill="#E0E0E0"/>
</g>
<g style="mix-blend-mode:color-burn">
<path d="M1127.63 888.066L1096.77 947.686L1065.9 888.066H1127.63Z" fill="#F8F8F8"/>
</g>
<g style="mix-blend-mode:color-burn">
<path d="M1198.16 803.082L1232.6 869.65H1163.68L1198.16 803.082Z" fill="#E0E0E0"/>
</g>
<g style="mix-blend-mode:color-burn">
<path d="M1282.88 787.771L1248.84 853.562L1214.79 787.771H1282.88Z" fill="#F8F8F8"/>
</g>
<g style="mix-blend-mode:color-burn">
<path d="M1350.24 710.516L1380.19 768.434H1320.28L1350.24 710.516Z" fill="#F8F8F8"/>
</g>
<g style="mix-blend-mode:color-burn">
<path d="M1426.73 695.701L1400.91 745.603L1375.09 695.701H1426.73Z" fill="#E0E0E0"/>
</g>
<g style="mix-blend-mode:color-burn">
<path d="M1147.44 902.443L1180.79 966.825H1114.14L1147.44 902.443Z" fill="#E0E0E0"/>
</g>
<g style="mix-blend-mode:color-burn">
<path d="M1233.47 884.857L1198.16 953.126L1162.85 884.857H1233.47Z" fill="#F8F8F8"/>
</g>
<g style="mix-blend-mode:color-burn">
<path d="M1299.52 802.986L1334.04 869.7H1265.04L1299.52 802.986Z" fill="#E0E0E0"/>
</g>
<g style="mix-blend-mode:color-burn">
<path d="M1383.1 788.6L1350.23 852.155L1317.36 788.6H1383.1Z" fill="#E0E0E0"/>
</g>
<g style="mix-blend-mode:color-burn">
<path d="M1451.63 715.029L1477.84 765.757H1425.38L1451.63 715.029Z" fill="#E0E0E0"/>
</g>
<g style="mix-blend-mode:color-burn">
<path d="M1248.84 898.457L1285.41 969.155H1212.27L1248.84 898.457Z" fill="#E0E0E0"/>
</g>
<g style="mix-blend-mode:color-burn">
<path d="M1335.92 884.08L1299.52 954.389L1263.17 884.08H1335.92Z" fill="#F8F8F8"/>
</g>
<g style="mix-blend-mode:color-burn">
<path d="M1400.91 804.73L1434 868.674H1367.87L1400.91 804.73Z" fill="#E0E0E0"/>
</g>
<g style="mix-blend-mode:color-burn">
<path d="M1482.2 790.25L1451.63 849.384L1421.03 790.25H1482.2Z" fill="#F8F8F8"/>
</g>
<g style="mix-blend-mode:color-burn">
<path d="M1350.23 897.871L1387.28 969.541H1313.18L1350.23 897.871Z" fill="#F8F8F8"/>
</g>
<g style="mix-blend-mode:color-burn">
<path d="M1436.7 884.516L1400.92 953.659L1365.13 884.516H1436.7Z" fill="#E0E0E0"/>
</g>
<g style="mix-blend-mode:color-burn">
<path d="M1451.63 898.115L1488.46 969.396H1414.75L1451.63 898.115Z" fill="#F8F8F8"/>
</g>
</g>
</g>
</g>
</g>
<defs>
<clipPath id="clip0_4717_64295">
<rect width="1440" height="960" fill="white"/>
</clipPath>
</defs>
</svg>
