<svg width="59" height="68" viewBox="0 0 59 68" fill="none" xmlns="http://www.w3.org/2000/svg">
<path fill-rule="evenodd" clip-rule="evenodd" d="M13.91 50.8017L13.9023 57.1637C15.1173 57.409 44.5975 57.2327 46.6786 57.2327C51.2853 57.2404 55.5357 57.9418 57.8889 52.281C59.6902 47.9425 59.1191 42.8031 56.4363 39.6029C53.3051 35.8661 48.8517 36.8051 42.8728 36.8012C40.5733 36.8012 36.779 37.0235 34.6634 36.7821C32.4405 36.5291 31.6894 33.3442 32.9924 31.4548C33.6171 30.5503 34.5753 30.4085 35.7442 30.1057C36.7752 29.8374 37.9671 29.5155 38.9713 29.2434L58.4714 24.0771L58.4791 17.5157C56.5551 17.8108 35.0045 23.3297 32.3907 23.9698C29.8076 24.606 28.6041 25.0774 27.554 27.1278C25.7374 30.6653 26.3084 36.6249 28.5926 39.8443C29.8612 41.6303 31.2026 42.4505 34.1154 42.4505C36.8135 42.4505 39.5155 42.4505 42.2136 42.4505C43.8693 42.4505 49.0394 42.2358 50.2965 42.5003C52.1515 42.8912 52.5233 46.329 52.1438 48.3105C51.5536 51.4034 49.4687 50.6867 46.3451 50.6905C40.9489 50.6943 35.5488 50.6905 30.1525 50.6905C27.9411 50.6905 14.918 50.4721 13.9062 50.8055L13.91 50.8017Z" fill="#AB241B"/>
<path fill-rule="evenodd" clip-rule="evenodd" d="M10.6063 18.3397C10.6063 20.2292 10.2652 22.3371 7.85834 22.9081C5.56645 23.4524 4.01809 21.8427 3.56201 20.187L0.181676 21.0263C-0.0904374 21.9883 0.00920917 27.0358 0.0628653 28.3542L15.7343 24.7363L15.8723 48.2568C17.6736 48.5788 20.4944 48.3795 22.3838 48.3986L22.4566 22.9924L42.9609 17.2512L42.9993 10L10.6063 18.3359V18.3397Z" fill="#AB241B"/>
<path fill-rule="evenodd" clip-rule="evenodd" d="M4.18337 31.5812L4.17188 56.8801L11.5764 56.8839L11.5649 29.9332L4.18337 31.5812Z" fill="#AB241B"/>
<path fill-rule="evenodd" clip-rule="evenodd" d="M6.43585 16.6265C2.79873 17.7878 4.58855 22.7702 7.78109 21.8772C11.0618 20.9612 9.61306 15.6071 6.43585 16.6265Z" fill="#AB241B"/>
</svg>
