<svg width="41" height="41" viewBox="0 0 41 41" fill="none" xmlns="http://www.w3.org/2000/svg">
<path d="M20.0582 3.60156C10.7407 3.60156 3.16016 11.1821 3.16016 20.4999C3.16016 29.8179 10.7407 37.3982 20.0582 37.3982C29.376 37.3982 36.9568 29.8179 36.9568 20.4999C36.9565 11.1821 29.3757 3.60156 20.0582 3.60156ZM20.0582 35.7316C11.6596 35.7316 4.82682 28.8988 4.82682 20.4999C4.82682 12.1013 11.6596 5.26823 20.0582 5.26823C28.4568 5.26823 35.2902 12.1013 35.2902 20.4999C35.2899 28.8988 28.4568 35.7316 20.0582 35.7316Z" fill="white"/>
<path d="M11.4746 16.9194H15.3852V27.1233H11.4746V16.9194Z" fill="white"/>
<path d="M13.3913 15.2918C14.4843 15.2918 15.3704 14.4834 15.3704 13.4862C15.3704 12.489 14.4843 11.6807 13.3913 11.6807C12.2982 11.6807 11.4121 12.489 11.4121 13.4862C11.4121 14.4834 12.2982 15.2918 13.3913 15.2918Z" fill="white"/>
<path d="M25.2162 16.689C24.4153 16.689 23.7367 16.8348 23.1789 17.1262C22.6217 17.4179 22.0712 17.9029 21.5264 18.5817V16.9195H17.8848V27.1234H21.7953V22.2231C21.7953 21.2942 21.9428 20.6509 22.2375 20.292C22.5323 19.9334 22.9162 19.754 23.3903 19.754C23.8195 19.754 24.1525 19.887 24.3898 20.1529C24.627 20.4187 24.745 20.8717 24.745 21.5126V27.1234H28.675V20.6381C28.675 19.2929 28.3689 18.2984 27.757 17.6545C27.1459 17.0106 26.2984 16.689 25.2162 16.689Z" fill="white"/>
</svg>
