<svg width="18" height="18" viewBox="0 0 18 18" fill="none" xmlns="http://www.w3.org/2000/svg">
<path d="M9.03414 14.7965C9.26195 14.7965 9.9932 14.4928 11.0395 13.5253C12.7016 11.9953 14.6423 9.30655 14.6423 6.7753C14.6423 5.27898 14.0479 3.84395 12.9898 2.78589C11.9317 1.72783 10.4967 1.13342 9.00039 1.13342C7.50407 1.13342 6.06904 1.72783 5.01098 2.78589C3.95293 3.84395 3.35852 5.27898 3.35852 6.7753C3.35852 10.7522 7.9907 14.7122 9.03414 14.7965ZM9.00039 3.41436C9.53217 3.41436 10.052 3.57205 10.4942 3.8675C10.9363 4.16294 11.281 4.58287 11.4845 5.07417C11.688 5.56547 11.7412 6.10609 11.6375 6.62766C11.5337 7.14923 11.2777 7.62831 10.9016 8.00434C10.5256 8.38037 10.0465 8.63645 9.52494 8.7402C9.00337 8.84394 8.46276 8.7907 7.97145 8.58719C7.48015 8.38369 7.06022 8.03906 6.76478 7.5969C6.46933 7.15474 6.31164 6.63489 6.31164 6.10311C6.31238 5.39024 6.5959 4.70678 7.09998 4.2027C7.60406 3.69862 8.28752 3.41511 9.00039 3.41436ZM15.1316 15.3253C15.1316 15.8512 12.9688 16.8722 9.00039 16.8722C5.03195 16.8722 2.86914 15.8512 2.86914 15.3253C2.86914 14.9737 3.88164 14.3212 6.13727 13.9837C6.17646 13.9775 6.21442 13.9652 6.24977 13.9472C7.30727 14.9456 8.34227 15.5869 8.96664 15.6347H9.04539C9.88914 15.6347 11.1182 14.5969 11.6132 14.1412C11.6751 14.085 11.737 14.0231 11.7988 13.9612C11.82 13.9681 11.8416 13.9738 11.8635 13.9781C14.1191 14.3212 15.1316 14.9737 15.1316 15.3253Z" fill="white"/>
</svg>
