<svg width="30" height="30" viewBox="0 0 30 30" fill="none" xmlns="http://www.w3.org/2000/svg">
<path d="M19.6875 29.5195L19.6758 29.5313H19.6875V29.5195ZM26.7188 18.0469V18.0352L26.707 18.0469H26.7188Z" fill="#FF9A30"/>
<path fill-rule="evenodd" clip-rule="evenodd" d="M15.7735 4.60967L22.5737 11.4099C22.9004 11.7366 23.0803 12.1709 23.0803 12.6328V17.0672L22.3884 16.3753V12.6328C22.3876 12.3577 22.2784 12.0941 22.0845 11.899L15.2843 5.09883C15.0884 4.90285 14.8279 4.79492 14.5506 4.79492H7.51292C6.94055 4.79492 6.47509 5.26038 6.47509 5.83275V23.8218C6.47509 24.3941 6.94055 24.8596 7.51292 24.8596H17.1907L17.8825 25.5515H7.51292C6.55915 25.5515 5.7832 24.7755 5.7832 23.8218V5.83275C5.7832 4.87898 6.55915 4.10303 7.51292 4.10303H14.5506C14.7778 4.10245 15.0029 4.14693 15.2128 4.23389C15.4227 4.32085 15.6133 4.44857 15.7735 4.60967ZM19.8312 17.6502C19.8191 17.5619 19.7482 17.4512 19.6721 17.3769C19.4542 17.1624 18.975 17.0499 18.2451 17.0396C17.7504 17.0344 17.1554 17.0776 16.5292 17.1658C16.249 17.005 15.9601 16.8285 15.7336 16.6158C15.123 16.0467 14.6144 15.2562 14.2962 14.3862C14.3169 14.3049 14.3342 14.234 14.3515 14.1613C14.3515 14.1613 14.694 12.2102 14.604 11.5495C14.5919 11.4595 14.5833 11.4336 14.5591 11.3627L14.5297 11.2865C14.4363 11.0703 14.2529 10.842 13.9658 10.8541L13.7963 10.8489H13.7928C13.4711 10.8489 13.2116 11.0132 13.1424 11.2571C12.9349 12.0251 13.1494 13.1754 13.5385 14.6629L13.4382 14.9051C13.1599 15.5861 12.8108 16.2706 12.5031 16.8739L12.5031 16.8739L12.5024 16.8752L12.4627 16.9531C12.1375 17.5879 11.8434 18.1276 11.5753 18.5842L11.3003 18.7295C11.2795 18.7399 10.8073 18.9907 10.6966 19.0564C9.75739 19.6186 9.1347 20.2551 9.03091 20.7602C8.99805 20.9228 9.02226 21.1286 9.19005 21.2237L9.45642 21.3587C9.57231 21.4157 9.69512 21.4451 9.81966 21.4451C10.4891 21.4451 11.2657 20.6114 12.3364 18.7433C13.5714 18.342 14.9794 18.0065 16.2127 17.8231C16.9645 18.2454 17.8548 18.5657 18.5545 18.6768C17.7212 19.436 17.1983 20.53 17.1983 21.7461C17.1983 24.0389 19.0569 25.8974 21.3496 25.8974C23.6423 25.8974 25.5009 24.0389 25.5009 21.7461C25.5009 19.4534 23.6423 17.5948 21.3496 17.5948C20.8196 17.5948 20.3127 17.6942 19.8467 17.8752C19.8462 17.8014 19.8408 17.726 19.8312 17.6502ZM19.3296 18.1185C19.3834 18.0886 19.4379 18.0597 19.493 18.0321C19.511 17.9559 19.4435 17.816 19.1411 17.7384C18.762 17.6415 18.6435 17.6415 18.2668 17.6415H18.2668L18.2468 17.6415C18.0323 17.6415 17.7919 17.6519 17.5307 17.6709C18.2105 17.9632 18.6966 18.1414 19.0875 18.1414C19.1579 18.1414 19.251 18.1332 19.3296 18.1185ZM9.67437 20.9383C9.79545 20.6045 10.2798 19.9438 10.9941 19.3591C11.0391 19.3228 11.1498 19.219 11.2501 19.1221C10.5029 20.3139 10.003 20.7879 9.67437 20.9383ZM13.9052 11.1949C14.1197 11.1949 14.2425 11.7363 14.2529 12.2448C14.2633 12.7533 14.1439 13.1097 13.9969 13.3743C13.8741 12.9834 13.8153 12.3676 13.8153 11.9646C13.8153 11.9646 13.8067 11.1949 13.9052 11.1949ZM12.6426 18.1379C12.793 17.8698 12.9487 17.5862 13.1078 17.2869C13.497 16.5518 13.7427 15.9775 13.9243 15.5053C14.2875 16.1661 14.7407 16.7282 15.2717 17.1779C15.3392 17.2333 15.4101 17.2904 15.4827 17.3475C14.4017 17.5602 13.4659 17.8214 12.6426 18.1379ZM23.2319 20.5333L23.2123 20.5637L21.7884 22.5421C21.6936 22.6919 21.5276 22.784 21.3496 22.784C21.1716 22.784 21.0056 22.6919 20.911 22.5423L19.4673 20.5334C19.4224 20.4545 19.3989 20.3651 19.3992 20.2743C19.3995 20.1834 19.4236 20.0942 19.4691 20.0156C19.5148 19.937 19.5804 19.8719 19.6592 19.8265C19.7379 19.7812 19.8272 19.7573 19.9181 19.7571H20.6577V18.6326C20.6577 18.3466 20.8905 18.1137 21.1766 18.1137H21.5226C21.8087 18.1137 22.0415 18.3466 22.0415 18.6326V19.757H22.7811C22.9653 19.757 23.1376 19.8559 23.2302 20.0154C23.2756 20.094 23.2997 20.1832 23.3 20.2741C23.3003 20.3649 23.2768 20.4543 23.2319 20.5333Z" fill="#FF402F"/>
<path d="M26.707 18.0469L26.7188 18.0352L25.7812 17.0977" fill="white"/>
</svg>
