<svg width="76" height="61" viewBox="0 0 76 61" fill="none" xmlns="http://www.w3.org/2000/svg">
<path d="M59.918 15.8333H43.668V11.8333C43.668 11.1 43.1055 10.5 42.418 10.5H32.418C31.7305 10.5 31.168 11.1 31.168 11.8333V15.8333H14.918C14.2305 15.8333 13.668 16.4333 13.668 17.1667V49.1667C13.668 49.9 14.2305 50.5 14.918 50.5H59.918C60.6055 50.5 61.168 49.9 61.168 49.1667V17.1667C61.168 16.4333 60.6055 15.8333 59.918 15.8333ZM33.668 13.1667H41.168V15.8333H33.668V13.1667ZM58.668 47.8333H16.168V34.5H33.668V38.4333C33.668 39.1667 34.2305 39.7667 34.918 39.7667H39.918C40.6055 39.7667 41.168 39.1667 41.168 38.4333V34.5H58.668V47.8333ZM36.168 37.1V29.1H38.668V37.1H36.168ZM58.668 31.8333H41.168V27.8333C41.168 27.1 40.6055 26.5 39.918 26.5H34.918C34.2305 26.5 33.668 27.1 33.668 27.8333V31.8333H16.168V18.5H58.668V31.8333Z" fill="white"/>
</svg>
