<svg width="18" height="18" viewBox="0 0 18 18" fill="none" xmlns="http://www.w3.org/2000/svg">
<path fill-rule="evenodd" clip-rule="evenodd" d="M6.75 3.375H6.46931C6.28459 3.37493 6.10167 3.41125 5.93099 3.48188C5.76031 3.55252 5.60522 3.65609 5.47458 3.78668C5.34394 3.91727 5.2403 4.07232 5.1696 4.24297C5.09889 4.41362 5.0625 4.59653 5.0625 4.78125V5.34375C5.0625 5.52842 5.09887 5.71128 5.16954 5.8819C5.24022 6.05251 5.3438 6.20754 5.47438 6.33812C5.7381 6.60184 6.09579 6.75 6.46875 6.75H11.5313C11.7159 6.75 11.8988 6.71363 12.0694 6.64296C12.24 6.57229 12.395 6.4687 12.5256 6.33812C12.6562 6.20754 12.7598 6.05251 12.8305 5.8819C12.9011 5.71128 12.9375 5.52842 12.9375 5.34375L12.9381 4.78125C12.9381 4.40829 12.7899 4.0506 12.5262 3.78688C12.2625 3.52316 11.9048 3.375 11.5318 3.375H11.25V2.53125C11.25 2.15829 11.1018 1.8006 10.8381 1.53688C10.5744 1.27316 10.2167 1.125 9.84375 1.125H8.15625C7.78329 1.125 7.4256 1.27316 7.16188 1.53688C6.89816 1.8006 6.75 2.15829 6.75 2.53125V3.375ZM7.875 3.375H10.125V2.53125C10.1249 2.45666 10.0954 2.38511 10.0429 2.33212C9.99 2.27981 9.91856 2.25 9.84375 2.25H8.15625C8.08166 2.25011 8.01011 2.27962 7.95713 2.33212C7.90481 2.385 7.875 2.45644 7.875 2.53125V3.375ZM10.6875 4.5L11.5318 4.5C11.6063 4.5003 11.6777 4.53002 11.7304 4.5827C11.783 4.63538 11.8128 4.70675 11.8131 4.78125V5.34375C11.8131 5.41834 11.7834 5.48988 11.7307 5.54262C11.6779 5.59537 11.6064 5.625 11.5318 5.625H6.46931C6.39481 5.6247 6.32345 5.59498 6.27077 5.5423C6.21809 5.48962 6.18836 5.41825 6.18806 5.34375V4.78125C6.18806 4.70666 6.21769 4.63512 6.27044 4.58238C6.32318 4.52963 6.39472 4.5 6.46931 4.5L7.3125 4.5H10.6875ZM14.5958 5.62444L14.625 5.625H14.6261C14.9366 5.625 15.1881 5.87644 15.1881 6.18638V15.1875C15.1881 15.3366 15.1284 15.48 15.0227 15.5852C14.9705 15.6375 14.9085 15.679 14.8403 15.7073C14.772 15.7356 14.6989 15.7501 14.625 15.75H3.375C3.30112 15.7501 3.22796 15.7356 3.15971 15.7073C3.09147 15.679 3.02948 15.6375 2.97731 15.5852C2.925 15.533 2.88351 15.471 2.85523 15.4028C2.82695 15.3345 2.81242 15.2614 2.8125 15.1875V6.1875C2.81228 6.11357 2.82668 6.04032 2.85486 5.97198C2.88305 5.90363 2.92448 5.84153 2.97676 5.78926C3.02903 5.73698 3.09113 5.69555 3.15948 5.66736C3.22782 5.63917 3.30107 5.62478 3.375 5.625C3.375 5.625 3.36825 4.9275 3.375 4.5C3.15335 4.49985 2.93385 4.5434 2.72905 4.62815C2.52424 4.7129 2.33816 4.8372 2.18143 4.99393C2.0247 5.15066 1.90041 5.33674 1.81565 5.54155C1.7309 5.74635 1.68735 5.96585 1.6875 6.1875V15.1875C1.6875 15.6353 1.86525 16.0644 2.1825 16.3806C2.33906 16.5373 2.52495 16.6616 2.72957 16.7464C2.93418 16.8312 3.1535 16.8749 3.375 16.875H14.625C14.8466 16.8751 15.0662 16.8316 15.271 16.7469C15.4758 16.6621 15.6618 16.5378 15.8186 16.3811C15.9753 16.2243 16.0996 16.0383 16.1844 15.8335C16.2691 15.6287 16.3127 15.4091 16.3125 15.1875V6.18638C16.3125 5.73912 16.1348 5.31018 15.8186 4.99393C15.5023 4.67767 15.0734 4.5 14.6261 4.5C14.3449 4.5 14.2757 4.65919 14.2976 4.85775C14.1553 4.70644 14.0625 4.8735 14.0625 5.0625C14.0625 5.36344 14.2993 5.60925 14.5969 5.62444H14.5958ZM12.9375 9.5625H5.0625C4.91332 9.5625 4.77024 9.50324 4.66475 9.39775C4.55926 9.29226 4.5 9.14918 4.5 9C4.5 8.85082 4.55926 8.70774 4.66475 8.60225C4.77024 8.49676 4.91332 8.4375 5.0625 8.4375H12.9375C13.0867 8.4375 13.2298 8.49676 13.3352 8.60225C13.4407 8.70774 13.5 8.85082 13.5 9C13.5 9.14918 13.4407 9.29226 13.3352 9.39775C13.2298 9.50324 13.0867 9.5625 12.9375 9.5625ZM12.9375 11.8125H5.0625C4.91332 11.8125 4.77024 11.7532 4.66475 11.6477C4.55926 11.5423 4.5 11.3992 4.5 11.25C4.5 11.1008 4.55926 10.9577 4.66475 10.8523C4.77024 10.7468 4.91332 10.6875 5.0625 10.6875H12.9375C13.0867 10.6875 13.2298 10.7468 13.3352 10.8523C13.4407 10.9577 13.5 11.1008 13.5 11.25C13.5 11.3992 13.4407 11.5423 13.3352 11.6477C13.2298 11.7532 13.0867 11.8125 12.9375 11.8125ZM12.9375 14.0625H5.0625C4.91332 14.0625 4.77024 14.0032 4.66475 13.8977C4.55926 13.7923 4.5 13.6492 4.5 13.5C4.5 13.3508 4.55926 13.2077 4.66475 13.1023C4.77024 12.9968 4.91332 12.9375 5.0625 12.9375H12.9375C13.0867 12.9375 13.2298 12.9968 13.3352 13.1023C13.4407 13.2077 13.5 13.3508 13.5 13.5C13.5 13.6492 13.4407 13.7923 13.3352 13.8977C13.2298 14.0032 13.0867 14.0625 12.9375 14.0625Z" fill="white"/>
<path d="M3.375 5.625C3.68566 5.625 3.9375 5.37316 3.9375 5.0625C3.9375 4.75184 3.68566 4.5 3.375 4.5C3.06434 4.5 2.8125 4.75184 2.8125 5.0625C2.8125 5.37316 3.06434 5.625 3.375 5.625Z" fill="white"/>
<path d="M14.625 5.625C14.9357 5.625 15.1875 5.37316 15.1875 5.0625C15.1875 4.75184 14.9357 4.5 14.625 4.5C14.3143 4.5 14.0625 4.75184 14.0625 5.0625C14.0625 5.37316 14.3143 5.625 14.625 5.625Z" fill="white"/>
</svg>
