<svg width="61" height="61" viewBox="0 0 61 61" fill="none" xmlns="http://www.w3.org/2000/svg">
<path d="M44.4794 9.60322H42.7837V9.38741C42.7837 8.62125 42.1625 8.00001 41.3963 8.00001C40.6302 8.00001 40.0089 8.62125 40.0089 9.38741V9.60322H31.6074V9.38741C31.6074 8.62125 30.9862 8.00001 30.22 8.00001C29.4539 8.00001 28.8326 8.62125 28.8326 9.38741V9.60322H20.4312V9.38741C20.4312 8.62125 19.8099 8.00001 19.0438 8.00001C18.2776 8.00001 17.6564 8.62125 17.6564 9.38741V9.60322H15.9607C12.8575 9.60322 10.334 12.1268 10.334 15.2299V48.3733C10.334 51.4765 12.8575 54 15.9607 54H31.8078C32.574 54 33.1952 53.3788 33.1952 52.6126C33.1952 51.8465 32.574 51.2252 31.8078 51.2252H15.9607C14.3883 51.2252 13.1088 49.9457 13.1088 48.3733V22.5615H47.3313V35.7017C47.3313 36.4679 47.9525 37.0891 48.7187 37.0891C49.4849 37.0891 50.1061 36.4679 50.1061 35.7017V15.2299C50.1061 12.1268 47.5826 9.60322 44.4794 9.60322ZM13.1088 19.7867V15.2299C13.1088 13.6575 14.3883 12.378 15.9607 12.378H17.6564V12.6C17.6564 13.3662 18.2776 13.9874 19.0438 13.9874C19.8099 13.9874 20.4312 13.3662 20.4312 12.6V12.378H28.8326V12.6C28.8326 13.3662 29.4539 13.9874 30.22 13.9874C30.9862 13.9874 31.6074 13.3662 31.6074 12.6V12.378H40.0089V12.6C40.0089 13.3662 40.6302 13.9874 41.3963 13.9874C42.1625 13.9874 42.7837 13.3662 42.7837 12.6V12.378H44.4794C46.0533 12.378 47.3313 13.6575 47.3313 15.2299V19.7867H13.1088Z" fill="white"/>
<path d="M41.6275 29.5556C41.6275 28.7894 41.0063 28.1682 40.2401 28.1682H20.1999C19.4337 28.1682 18.8125 28.7894 18.8125 29.5556C18.8125 30.3217 19.4337 30.943 20.1999 30.943H40.2401C41.0063 30.9414 41.6275 30.3217 41.6275 29.5556ZM20.1999 36.4263C19.4337 36.4263 18.8125 37.0475 18.8125 37.8137C18.8125 38.5798 19.4337 39.2011 20.1999 39.2011H29.0947C29.8608 39.2011 30.4821 38.5798 30.4821 37.8137C30.4821 37.0475 29.8608 36.4263 29.0947 36.4263H20.1999ZM46.1921 48.1236C47.1309 46.7886 47.6504 45.2085 47.6504 43.5421C47.6504 41.4055 46.8179 39.3968 45.3057 37.8861C43.7949 36.3754 41.7863 35.5414 39.6482 35.5414C37.51 35.5414 35.5029 36.3739 33.9906 37.8846C32.4799 39.3953 31.6475 41.4055 31.6475 43.5421C31.6475 45.6802 32.4799 47.6889 33.9906 49.1996C35.5014 50.7103 37.51 51.5428 39.6482 51.5428C41.3146 51.5428 42.8931 51.0233 44.2281 50.0844L47.7367 53.593C48.008 53.8643 48.3641 54 48.7187 54C49.0732 54 49.4293 53.8643 49.7006 53.593C50.2433 53.0519 50.2433 52.1733 49.7006 51.6322L46.1921 48.1236ZM35.9546 47.2372C34.9665 46.2506 34.4238 44.9387 34.4238 43.5421C34.4238 42.147 34.968 40.8351 35.9546 39.847C36.9412 38.8588 38.253 38.3162 39.6482 38.3162C41.0433 38.3162 42.3567 38.8604 43.3417 39.8485C44.3299 40.8351 44.8725 42.147 44.8725 43.5421C44.8725 44.9387 44.3283 46.2506 43.3417 47.2372C41.3701 49.2119 37.9262 49.2119 35.9546 47.2372Z" fill="white"/>
</svg>
