<svg width="50" height="50" viewBox="0 0 50 50" fill="none" xmlns="http://www.w3.org/2000/svg">
<rect width="50" height="50" fill="#588900"/>
<path d="M30.5319 22.0612C31.9495 22.0612 33.125 20.8856 33.125 19.4681C33.125 18.0505 31.9495 16.875 30.5319 16.875C29.1144 16.875 27.9388 18.0505 27.9388 19.4681C27.9388 19.7447 27.9734 20.0559 28.0771 20.2979L21.6117 23.5479C21.1277 22.8564 20.367 22.4069 19.4681 22.4069C18.0505 22.4069 16.875 23.5824 16.875 25C16.875 26.4176 18.0505 27.5931 19.4681 27.5931C20.367 27.5931 21.1277 27.1436 21.6117 26.4521L28.0771 29.7021C27.9734 29.9787 27.9388 30.2553 27.9388 30.5319C27.9388 31.9495 29.1144 33.125 30.5319 33.125C31.9495 33.125 33.125 31.9495 33.125 30.5319C33.125 29.1144 31.9495 27.9388 30.5319 27.9388C29.633 27.9388 28.8723 28.3883 28.3883 29.0798L21.9229 25.8298C22.0266 25.5532 22.0612 25.2766 22.0612 25C22.0612 24.7234 22.0266 24.4122 21.9229 24.1702L28.3883 20.9202C28.8723 21.6117 29.633 22.0612 30.5319 22.0612ZM30.5319 28.6303C31.5691 28.6303 32.4335 29.4947 32.4335 30.5319C32.4335 31.5691 31.5691 32.4335 30.5319 32.4335C29.4947 32.4335 28.6303 31.5691 28.6303 30.5319C28.6303 29.4947 29.4947 28.6303 30.5319 28.6303ZM19.4681 26.9016C18.4309 26.9016 17.5665 26.0372 17.5665 25C17.5665 23.9628 18.4309 23.0984 19.4681 23.0984C20.5053 23.0984 21.3697 23.9628 21.3697 25C21.3697 26.0372 20.5053 26.9016 19.4681 26.9016ZM30.5319 17.5665C31.5691 17.5665 32.4335 18.4309 32.4335 19.4681C32.4335 20.5053 31.5691 21.3697 30.5319 21.3697C29.4947 21.3697 28.6303 20.5053 28.6303 19.4681C28.6303 18.4309 29.4947 17.5665 30.5319 17.5665Z" fill="white" stroke="white" stroke-width="2"/>
</svg>
