<svg width="100" height="20" viewBox="0 0 100 20" fill="none" xmlns="http://www.w3.org/2000/svg">
<path d="M10.3991 4.70007L12.1991 8.30007C12.2991 8.40007 12.3991 8.50007 12.5991 8.60007L16.4991 9.20007C16.8991 9.30007 17.0991 9.80007 16.7991 10.1001L13.9991 12.9001C13.8991 13.0001 13.7991 13.2001 13.8991 13.3001L14.5991 17.2001C14.6991 17.6001 14.1991 17.9001 13.8991 17.7001L10.3991 15.9001C10.2991 15.8001 10.0991 15.8001 9.89913 15.9001L6.39913 17.7001C5.99913 17.9001 5.59913 17.6001 5.69913 17.2001L6.39913 13.3001C6.39913 13.1001 6.39913 13.0001 6.29913 12.9001L3.19913 9.90007C2.89913 9.60007 3.09913 9.10007 3.49913 9.10007L7.39913 8.50007C7.59913 8.50007 7.69913 8.40007 7.79913 8.20007L9.59913 4.60007C9.69913 4.30007 10.2991 4.30007 10.3991 4.70007Z" fill="url(#paint0_linear_4691_63198)"/>
<path d="M30.3991 4.70007L32.1991 8.30007C32.2991 8.40007 32.3991 8.50007 32.5991 8.60007L36.4991 9.20007C36.8991 9.30007 37.0991 9.80007 36.7991 10.1001L33.9991 12.9001C33.8991 13.0001 33.7991 13.2001 33.8991 13.3001L34.5991 17.2001C34.6991 17.6001 34.1991 17.9001 33.8991 17.7001L30.3991 15.9001C30.2991 15.8001 30.0991 15.8001 29.8991 15.9001L26.3991 17.7001C25.9991 17.9001 25.5991 17.6001 25.6991 17.2001L26.3991 13.3001C26.3991 13.1001 26.3991 13.0001 26.2991 12.9001L23.1991 9.90007C22.8991 9.60007 23.0991 9.10007 23.4991 9.10007L27.3991 8.50007C27.5991 8.50007 27.6991 8.40007 27.7991 8.20007L29.5991 4.60007C29.6991 4.30007 30.2991 4.30007 30.3991 4.70007Z" fill="url(#paint1_linear_4691_63198)"/>
<path d="M50.3991 4.70007L52.1991 8.30007C52.2991 8.40007 52.3991 8.50007 52.5991 8.60007L56.4991 9.20007C56.8991 9.30007 57.0991 9.80007 56.7991 10.1001L53.9991 12.9001C53.8991 13.0001 53.7991 13.2001 53.8991 13.3001L54.5991 17.2001C54.6991 17.6001 54.1991 17.9001 53.8991 17.7001L50.3991 15.9001C50.2991 15.8001 50.0991 15.8001 49.8991 15.9001L46.3991 17.7001C45.9991 17.9001 45.5991 17.6001 45.6991 17.2001L46.3991 13.3001C46.3991 13.1001 46.3991 13.0001 46.2991 12.9001L43.1991 9.90007C42.8991 9.60007 43.0991 9.10007 43.4991 9.10007L47.3991 8.50007C47.5991 8.50007 47.6991 8.40007 47.7991 8.20007L49.5991 4.60007C49.6991 4.30007 50.2991 4.30007 50.3991 4.70007Z" fill="url(#paint2_linear_4691_63198)"/>
<path d="M70.3991 4.70007L72.1991 8.30007C72.2991 8.40007 72.3991 8.50007 72.5991 8.60007L76.4991 9.20007C76.8991 9.30007 77.0991 9.80007 76.7991 10.1001L73.9991 12.9001C73.8991 13.0001 73.7991 13.2001 73.8991 13.3001L74.5991 17.2001C74.6991 17.6001 74.1991 17.9001 73.8991 17.7001L70.3991 15.9001C70.2991 15.8001 70.0991 15.8001 69.8991 15.9001L66.3991 17.7001C65.9991 17.9001 65.5991 17.6001 65.6991 17.2001L66.3991 13.3001C66.3991 13.1001 66.3991 13.0001 66.2991 12.9001L63.1991 9.90007C62.8991 9.60007 63.0991 9.10007 63.4991 9.10007L67.3991 8.50007C67.5991 8.50007 67.6991 8.40007 67.7991 8.20007L69.5991 4.60007C69.6991 4.30007 70.2991 4.30007 70.3991 4.70007Z" fill="url(#paint3_linear_4691_63198)"/>
<path d="M90.3991 4.70007L92.1991 8.30007C92.2991 8.40007 92.3991 8.50007 92.5991 8.60007L96.4991 9.20007C96.8991 9.30007 97.0991 9.80007 96.7991 10.1001L93.9991 12.9001C93.8991 13.0001 93.7991 13.2001 93.8991 13.3001L94.5991 17.2001C94.6991 17.6001 94.1991 17.9001 93.8991 17.7001L90.3991 15.9001C90.2991 15.8001 90.0991 15.8001 89.8991 15.9001L86.3991 17.7001C85.9991 17.9001 85.5991 17.6001 85.6991 17.2001L86.3991 13.3001C86.3991 13.1001 86.3991 13.0001 86.2991 12.9001L83.1991 9.90007C82.8991 9.60007 83.0991 9.10007 83.4991 9.10007L87.3991 8.50007C87.5991 8.50007 87.6991 8.40007 87.7991 8.20007L89.5991 4.60007C89.6991 4.30007 90.2991 4.30007 90.3991 4.70007Z" fill="url(#paint4_linear_4691_63198)"/>
<defs>
<linearGradient id="paint0_linear_4691_63198" x1="3.06213" y1="11.0001" x2="16.9361" y2="11.0001" gradientUnits="userSpaceOnUse">
<stop stop-color="#FFC80B"/>
<stop offset="1" stop-color="#E89318"/>
</linearGradient>
<linearGradient id="paint1_linear_4691_63198" x1="23.0621" y1="11.0001" x2="36.9361" y2="11.0001" gradientUnits="userSpaceOnUse">
<stop stop-color="#FFC80B"/>
<stop offset="1" stop-color="#E89318"/>
</linearGradient>
<linearGradient id="paint2_linear_4691_63198" x1="43.0621" y1="11.0001" x2="56.9361" y2="11.0001" gradientUnits="userSpaceOnUse">
<stop stop-color="#FFC80B"/>
<stop offset="1" stop-color="#E89318"/>
</linearGradient>
<linearGradient id="paint3_linear_4691_63198" x1="63.0621" y1="11.0001" x2="76.9361" y2="11.0001" gradientUnits="userSpaceOnUse">
<stop stop-color="#FFC80B"/>
<stop offset="1" stop-color="#E89318"/>
</linearGradient>
<linearGradient id="paint4_linear_4691_63198" x1="83.0621" y1="11.0001" x2="96.9361" y2="11.0001" gradientUnits="userSpaceOnUse">
<stop stop-color="#FFC80B"/>
<stop offset="1" stop-color="#E89318"/>
</linearGradient>
</defs>
</svg>
