<svg width="233" height="278" viewBox="0 0 233 278" fill="none" xmlns="http://www.w3.org/2000/svg">
<g filter="url(#filter0_d_4725_65364)">
<path d="M136.566 243.803C135.97 243.803 135.437 243.405 135.285 242.805C135.106 242.098 135.54 241.381 136.248 241.207C150.36 237.696 163.384 230.466 173.914 220.303C190.336 204.445 199.38 183.142 199.38 160.309C199.38 137.475 191.075 118.035 175.992 102.41C175.486 101.886 175.414 100.968 175.933 100.462C176.453 99.9608 177.2 99.8802 177.711 100.404L177.881 100.579C193.444 116.701 202.013 137.909 202.013 160.313C202.013 183.867 192.682 205.85 175.745 222.205C164.879 232.695 151.439 240.154 136.879 243.776C136.772 243.803 136.664 243.817 136.561 243.817L136.566 243.803ZM55.099 220.522C54.7856 220.522 54.4767 220.406 54.226 220.159C54.2125 220.141 54.114 220.043 54.1006 220.025C38.5648 203.939 30 182.73 30 160.326C30 136.772 39.3304 114.794 56.2676 98.4341C67.1023 87.9799 80.498 80.5299 95.013 76.89C95.7204 76.7109 96.4367 77.1452 96.6113 77.8481C96.7904 78.5555 96.3561 79.2718 95.6532 79.4464C81.5859 82.9744 68.5977 90.1961 58.0987 100.328C41.6765 116.182 32.6326 137.488 32.6326 160.322C32.6326 183.156 40.9377 202.595 56.0213 218.216C56.5228 218.736 56.5541 219.609 56.0392 220.115C55.7706 220.379 55.4303 220.513 55.0945 220.513L55.099 220.522Z" fill="#0087CC"/>
<path d="M116.006 98.0152C115.276 98.0152 114.689 97.4242 114.689 96.6989V31.6591C114.689 30.9293 115.28 30.3428 116.006 30.3428C116.731 30.3428 117.322 30.9338 117.322 31.6591V96.6989C117.322 97.4287 116.731 98.0152 116.006 98.0152Z" fill="#0087CC"/>
<path d="M121.953 31.9502C121.953 28.6639 119.289 26 116.003 26C112.717 26 110.053 28.6639 110.053 31.9502C110.053 35.2364 112.717 37.9003 116.003 37.9003C119.289 37.9003 121.953 35.2364 121.953 31.9502Z" fill="#0087CC"/>
<path d="M115.764 229.503C153.977 229.503 184.955 198.526 184.955 160.313C184.955 122.101 153.977 91.123 115.764 91.123C77.5517 91.123 46.5742 122.101 46.5742 160.313C46.5742 198.526 77.5517 229.503 115.764 229.503Z" fill="#0087CC"/>
<path d="M115.763 231.702C76.4002 231.702 44.375 199.676 44.375 160.313C44.375 120.95 76.4002 88.9292 115.763 88.9292C155.127 88.9292 187.152 120.95 187.152 160.313C187.152 199.676 155.127 231.702 115.763 231.702ZM115.763 93.3213C78.8223 93.3213 48.7716 123.372 48.7716 160.313C48.7716 197.254 78.8268 227.305 115.763 227.305C152.7 227.305 182.755 197.254 182.755 160.313C182.755 123.372 152.705 93.3213 115.763 93.3213Z" fill="white"/>
</g>
<defs>
<filter id="filter0_d_4725_65364" x="0" y="0" width="232.014" height="277.817" filterUnits="userSpaceOnUse" color-interpolation-filters="sRGB">
<feFlood flood-opacity="0" result="BackgroundImageFix"/>
<feColorMatrix in="SourceAlpha" type="matrix" values="0 0 0 0 0 0 0 0 0 0 0 0 0 0 0 0 0 0 127 0" result="hardAlpha"/>
<feOffset dy="4"/>
<feGaussianBlur stdDeviation="15"/>
<feComposite in2="hardAlpha" operator="out"/>
<feColorMatrix type="matrix" values="0 0 0 0 0 0 0 0 0 0 0 0 0 0 0 0 0 0 0.25 0"/>
<feBlend mode="normal" in2="BackgroundImageFix" result="effect1_dropShadow_4725_65364"/>
<feBlend mode="normal" in="SourceGraphic" in2="effect1_dropShadow_4725_65364" result="shape"/>
</filter>
</defs>
</svg>
