<svg width="41" height="41" viewBox="0 0 41 41" fill="none" xmlns="http://www.w3.org/2000/svg">
<path d="M20.0797 3.60156C10.7622 3.60156 3.18164 11.1821 3.18164 20.4999C3.18164 29.8179 10.7622 37.3982 20.0797 37.3982C29.3975 37.3982 36.9783 29.8179 36.9783 20.4999C36.978 11.1821 29.3972 3.60156 20.0797 3.60156ZM20.0797 35.7316C11.6811 35.7316 4.84831 28.8988 4.84831 20.4999C4.84831 12.1013 11.6811 5.26823 20.0797 5.26823C28.4783 5.26823 35.3116 12.1013 35.3116 20.4999C35.3114 28.8988 28.4783 35.7316 20.0797 35.7316Z" fill="white"/>
<path d="M27.6255 14.9943C28.0139 14.7937 28.9439 14.1979 29.3822 12.919C29.3822 12.919 28.3258 13.6829 26.888 13.7729L26.8619 13.7873C26.4851 13.3751 26.0265 13.0459 25.5153 12.821C25.0041 12.596 24.4515 12.4802 23.893 12.481C21.6686 12.481 19.8655 14.2843 19.8655 16.5087C19.8655 16.8462 19.9075 17.174 19.9861 17.4873L19.9666 17.4582C19.9666 17.4582 15.6527 17.7054 11.5858 13.2562C11.5858 13.2562 9.78774 16.3121 12.8664 18.649C12.1922 18.7612 11.0016 18.1546 11.0016 18.1546C11.0016 18.1546 11.0689 21.3673 14.2594 22.154C13.7427 22.289 12.7764 22.3335 12.4619 22.199C12.4619 22.199 12.9336 24.6479 16.1919 25.0751C15.3605 25.5471 13.8102 26.9848 10.3047 26.7151C10.3047 26.7151 12.8219 28.7821 17.4955 28.4904C22.1691 28.1987 25.5622 25.0523 26.9327 21.7271C28.3033 18.4018 27.9219 16.5085 27.9219 16.5085C27.9219 16.5085 29.0672 15.9073 29.8544 14.4696C29.4908 14.5785 28.1422 14.9079 27.6402 15.0298C27.6352 15.0181 27.6303 15.0062 27.6255 14.9943Z" fill="white"/>
</svg>
