<svg width="41" height="41" viewBox="0 0 41 41" fill="none" xmlns="http://www.w3.org/2000/svg">
<path d="M20.1031 3.60156C10.7856 3.60156 3.20508 11.1821 3.20508 20.4999C3.20508 29.8177 10.7856 37.3982 20.1031 37.3982C29.4209 37.3982 37.0017 29.8177 37.0017 20.4999C37.0017 11.1821 29.4206 3.60156 20.1031 3.60156ZM20.1031 35.7316C11.7045 35.7316 4.87174 28.8985 4.87174 20.4999C4.87174 12.1013 11.7045 5.26823 20.1031 5.26823C28.5017 5.26823 35.3351 12.1013 35.3351 20.4999C35.3351 28.8985 28.5017 35.7316 20.1031 35.7316Z" fill="white"/>
<path d="M26.8634 14.5048C26.8634 14.5048 24.9537 14.2271 19.9884 14.2271C15.0056 14.2271 13.252 14.5048 13.252 14.5048C12.9583 14.5048 12.6675 14.5626 12.3962 14.675C12.1249 14.7873 11.8783 14.952 11.6707 15.1597C11.463 15.3673 11.2983 15.6138 11.1859 15.8852C11.0735 16.1565 11.0156 16.4473 11.0156 16.7409V24.1195C11.0157 24.4132 11.0735 24.704 11.1859 24.9753C11.2984 25.2465 11.4631 25.493 11.6708 25.7006C11.8784 25.9083 12.125 26.0729 12.3963 26.1853C12.6676 26.2976 12.9584 26.3554 13.252 26.3554C13.252 26.3554 15.0056 26.6332 19.994 26.6332C24.9534 26.6332 26.8631 26.3554 26.8631 26.3554C27.4562 26.3554 28.0249 26.1198 28.4443 25.7006C28.8637 25.2813 29.0994 24.7126 29.0995 24.1195V16.7409C29.0995 16.1479 28.8639 15.5791 28.4446 15.1598C28.0252 14.7404 27.4565 14.5048 26.8634 14.5048ZM17.3201 23.9709V16.9293L23.4184 20.4498L17.3201 23.9709Z" fill="white"/>
</svg>
