<svg width="41" height="44" viewBox="0 0 41 44" fill="none" xmlns="http://www.w3.org/2000/svg">
<path fill-rule="evenodd" clip-rule="evenodd" d="M14.0625 6.25H13.2828C12.7697 6.24979 12.2616 6.35068 11.7875 6.5469C11.3134 6.74311 10.8826 7.03081 10.5197 7.39356C10.1568 7.75631 9.8689 8.187 9.6725 8.66103C9.47609 9.13506 9.375 9.64314 9.375 10.1562V11.7188C9.375 12.2317 9.47604 12.7397 9.67235 13.2136C9.86865 13.6875 10.1564 14.1182 10.5191 14.4809C11.2517 15.2134 12.2452 15.625 13.2813 15.625H27.3437C27.8567 15.625 28.3647 15.524 28.8386 15.3277C29.3125 15.1313 29.7432 14.8436 30.1059 14.4809C30.4686 14.1182 30.7563 13.6875 30.9527 13.2136C31.149 12.7397 31.25 12.2317 31.25 11.7188L31.2516 10.1562C31.2516 9.12025 30.84 8.12668 30.1074 7.39411C29.3749 6.66155 28.3813 6.25 27.3453 6.25H26.5625V3.90625C26.5625 2.87025 26.151 1.87668 25.4184 1.14411C24.6858 0.41155 23.6923 0 22.6563 0H17.9688C16.9327 0 15.9392 0.41155 15.2066 1.14411C14.4741 1.87668 14.0625 2.87025 14.0625 3.90625V6.25ZM17.1875 6.25H23.4375V3.90625C23.4372 3.69904 23.3552 3.50031 23.2094 3.35312C23.0625 3.20781 22.8641 3.125 22.6563 3.125H17.9688C17.7615 3.12531 17.5628 3.20728 17.4156 3.35312C17.2703 3.5 17.1875 3.69844 17.1875 3.90625V6.25ZM25 9.375H27.3453C27.5523 9.37582 27.7505 9.4584 27.8968 9.60473C28.0432 9.75107 28.1257 9.9493 28.1266 10.1562V11.7188C28.1266 11.926 28.0443 12.1247 27.8977 12.2712C27.7512 12.4177 27.5525 12.5 27.3453 12.5H13.2828C13.0759 12.4992 12.8776 12.4166 12.7313 12.2703C12.585 12.1239 12.5024 11.9257 12.5016 11.7188V10.1562C12.5016 9.94905 12.5839 9.75034 12.7304 9.60382C12.8769 9.45731 13.0756 9.375 13.2828 9.375H15.625H25ZM35.8563 12.4984L35.9375 12.5H35.9406C36.8031 12.5 37.5016 13.1984 37.5016 14.0594V39.0625C37.5016 39.4766 37.3359 39.875 37.0422 40.1672C36.8973 40.3125 36.7251 40.4277 36.5355 40.5063C36.3459 40.5849 36.1427 40.6252 35.9375 40.625H4.6875C4.48229 40.6252 4.27906 40.5849 4.08948 40.5063C3.8999 40.4277 3.72772 40.3125 3.58282 40.1672C3.43751 40.0223 3.32226 39.8501 3.24369 39.6605C3.16513 39.4709 3.12479 39.2677 3.125 39.0625V14.0625C3.12438 13.8571 3.16438 13.6537 3.24268 13.4638C3.32098 13.274 3.43605 13.1015 3.58127 12.9563C3.72648 12.8111 3.89898 12.696 4.08883 12.6177C4.27868 12.5394 4.48214 12.4994 4.6875 12.5C4.6875 12.5 4.66875 10.5625 4.6875 9.375C4.07182 9.37459 3.46209 9.49556 2.89319 9.73098C2.32429 9.9664 1.80738 10.3117 1.37202 10.747C0.936666 11.1824 0.591403 11.6993 0.35598 12.2682C0.120557 12.8371 -0.000408817 13.4468 1.03802e-06 14.0625V39.0625C1.03802e-06 40.3063 0.493752 41.4984 1.375 42.3766C1.80989 42.8118 2.32626 43.1571 2.89463 43.3928C3.46299 43.6285 4.07222 43.7498 4.6875 43.75H35.9375C36.5532 43.7504 37.1629 43.6294 37.7318 43.394C38.3007 43.1586 38.8176 42.8133 39.253 42.378C39.6883 41.9426 40.0336 41.4257 40.269 40.8568C40.5044 40.2879 40.6254 39.6782 40.625 39.0625V14.0594C40.625 12.817 40.1315 11.6255 39.253 10.747C38.3745 9.86853 37.183 9.375 35.9406 9.375C35.1594 9.375 34.9672 9.81719 35.0281 10.3688C34.6328 9.94844 34.375 10.4125 34.375 10.9375C34.375 11.7734 35.0328 12.4563 35.8594 12.4984H35.8563ZM31.25 23.4375H9.375C8.9606 23.4375 8.56317 23.2729 8.27015 22.9799C7.97712 22.6868 7.8125 22.2894 7.8125 21.875C7.8125 21.4606 7.97712 21.0632 8.27015 20.7701C8.56317 20.4771 8.9606 20.3125 9.375 20.3125H31.25C31.6644 20.3125 32.0618 20.4771 32.3549 20.7701C32.6479 21.0632 32.8125 21.4606 32.8125 21.875C32.8125 22.2894 32.6479 22.6868 32.3549 22.9799C32.0618 23.2729 31.6644 23.4375 31.25 23.4375ZM31.25 29.6875H9.375C8.9606 29.6875 8.56317 29.5229 8.27015 29.2299C7.97712 28.9368 7.8125 28.5394 7.8125 28.125C7.8125 27.7106 7.97712 27.3132 8.27015 27.0201C8.56317 26.7271 8.9606 26.5625 9.375 26.5625H31.25C31.6644 26.5625 32.0618 26.7271 32.3549 27.0201C32.6479 27.3132 32.8125 27.7106 32.8125 28.125C32.8125 28.5394 32.6479 28.9368 32.3549 29.2299C32.0618 29.5229 31.6644 29.6875 31.25 29.6875ZM31.25 35.9375H9.375C8.9606 35.9375 8.56317 35.7729 8.27015 35.4799C7.97712 35.1868 7.8125 34.7894 7.8125 34.375C7.8125 33.9606 7.97712 33.5632 8.27015 33.2701C8.56317 32.9771 8.9606 32.8125 9.375 32.8125H31.25C31.6644 32.8125 32.0618 32.9771 32.3549 33.2701C32.6479 33.5632 32.8125 33.9606 32.8125 34.375C32.8125 34.7894 32.6479 35.1868 32.3549 35.4799C32.0618 35.7729 31.6644 35.9375 31.25 35.9375Z" fill="#FF9800"/>
<path d="M4.6875 12.5C5.55045 12.5 6.25 11.8004 6.25 10.9375C6.25 10.0746 5.55045 9.375 4.6875 9.375C3.82456 9.375 3.125 10.0746 3.125 10.9375C3.125 11.8004 3.82456 12.5 4.6875 12.5Z" fill="#FF9800"/>
<path d="M35.9375 12.5C36.8004 12.5 37.5 11.8004 37.5 10.9375C37.5 10.0746 36.8004 9.375 35.9375 9.375C35.0746 9.375 34.375 10.0746 34.375 10.9375C34.375 11.8004 35.0746 12.5 35.9375 12.5Z" fill="#FF9800"/>
</svg>
