<svg width="50" height="50" viewBox="0 0 50 50" fill="none" xmlns="http://www.w3.org/2000/svg">
<path d="M45.8333 35.1864H36.4583C35.7 35.1864 34.9875 35.3938 34.375 35.7557V24.6053C34.375 22.2711 32.5062 20.3729 30.2083 20.3729H19.7917C17.4937 20.3729 15.625 22.2711 15.625 24.6053V29.407C15.0125 29.0452 14.3 28.8378 13.5417 28.8378H4.16667C1.86875 28.8378 0 30.736 0 33.0702V50H50V39.4189C50 37.0847 48.1312 35.1864 45.8333 35.1864ZM17.7083 24.6053C17.7083 23.4393 18.6417 22.4891 19.7917 22.4891H30.2083C31.3583 22.4891 32.2917 23.4393 32.2917 24.6053V47.8838H17.7083V24.6053ZM2.08333 33.0702C2.08333 31.9042 3.01667 30.954 4.16667 30.954H13.5417C14.6917 30.954 15.625 31.9042 15.625 33.0702V47.8838H2.08333V33.0702ZM47.9167 47.8838H34.375V39.4189C34.375 38.2528 35.3083 37.3027 36.4583 37.3027H45.8333C46.9833 37.3027 47.9167 38.2528 47.9167 39.4189V47.8838ZM19.0625 15.44L20.3687 16.4367L25 13.3872L29.6292 16.4367L30.9292 15.4167L29.4562 10.4139L33.3333 7.2396V5.5572H27.7437L25.825 0H24.1729L22.2542 5.5572H16.6646V7.2396L20.5417 10.4139L19.0604 15.4378L19.0625 15.44ZM20.5146 7.67554H23.7312L24.9979 4.00389L26.2646 7.67554H29.4812L27.0562 9.66056L27.9917 12.8391L24.9979 10.8668L22.0021 12.8391L22.9375 9.66056L20.5125 7.67554H20.5146Z" fill="#789D4A"/>
</svg>
