<svg width="27" height="38" viewBox="0 0 27 38" fill="none" xmlns="http://www.w3.org/2000/svg">
<path d="M27 11.0787C27 11.9492 26.325 12.6614 25.5 12.6614H20.97C20.58 18.8338 15.69 23.7401 9.75 23.7401H5.7L18.945 35.1828C19.59 35.7368 19.68 36.7339 19.155 37.4144C18.855 37.7943 18.42 38 17.985 38C17.655 38 17.31 37.8892 17.04 37.636L0.555 23.3761C0.0599998 22.9488 -0.12 22.2524 0.0899999 21.6193C0.3 20.9863 0.87 20.5748 1.5 20.5748H9.75C14.04 20.5748 17.58 17.0929 17.97 12.6614H1.5C0.675 12.6614 0 11.9492 0 11.0787C0 10.2082 0.675 9.49604 1.5 9.49604H17.685C16.71 5.84007 13.515 3.16535 9.75 3.16535H1.5C0.675 3.16535 0 2.45314 0 1.58267C0 0.712203 0.675 0 1.5 0H25.5C26.325 0 27 0.712203 27 1.58267C27 2.45314 26.325 3.16535 25.5 3.16535H17.385C19.08 4.82716 20.295 7.02707 20.76 9.49604H25.485C26.31 9.49604 26.985 10.2082 26.985 11.0787H27Z" fill="#01C0D1"/>
</svg>
