<svg width="48" height="40" viewBox="0 0 48 40" fill="none" xmlns="http://www.w3.org/2000/svg">
<path d="M46.25 5.33333H30V1.33333C30 0.6 29.4375 0 28.75 0H18.75C18.0625 0 17.5 0.6 17.5 1.33333V5.33333H1.25C0.5625 5.33333 0 5.93333 0 6.66667V38.6667C0 39.4 0.5625 40 1.25 40H46.25C46.9375 40 47.5 39.4 47.5 38.6667V6.66667C47.5 5.93333 46.9375 5.33333 46.25 5.33333ZM20 2.66667H27.5V5.33333H20V2.66667ZM45 37.3333H2.5V24H20V27.9333C20 28.6667 20.5625 29.2667 21.25 29.2667H26.25C26.9375 29.2667 27.5 28.6667 27.5 27.9333V24H45V37.3333ZM22.5 26.6V18.6H25V26.6H22.5ZM45 21.3333H27.5V17.3333C27.5 16.6 26.9375 16 26.25 16H21.25C20.5625 16 20 16.6 20 17.3333V21.3333H2.5V8H45V21.3333Z" fill="#009688"/>
</svg>
