<svg width="40" height="46" viewBox="0 0 40 46" fill="none" xmlns="http://www.w3.org/2000/svg">
<path d="M34.1454 1.60322H32.4497V1.3874C32.4497 0.621247 31.8285 0 31.0623 0C30.2962 0 29.6749 0.621247 29.6749 1.3874V1.60322H21.2735V1.3874C21.2735 0.621247 20.6522 0 19.8861 0C19.1199 0 18.4987 0.621247 18.4987 1.3874V1.60322H10.0972V1.3874C10.0972 0.621247 9.47594 0 8.70978 0C7.94363 0 7.32239 0.621247 7.32239 1.3874V1.60322H5.62668C2.52353 1.60322 0 4.12674 0 7.22989V40.3733C0 43.4765 2.52353 46 5.62668 46H21.4739C22.24 46 22.8613 45.3788 22.8613 44.6126C22.8613 43.8464 22.24 43.2252 21.4739 43.2252H5.62668C4.05429 43.2252 2.7748 41.9457 2.7748 40.3733V14.5615H36.9973V27.7017C36.9973 28.4679 37.6186 29.0891 38.3847 29.0891C39.1509 29.0891 39.7721 28.4679 39.7721 27.7017V7.22989C39.7721 4.12674 37.2486 1.60322 34.1454 1.60322ZM2.7748 11.7867V7.22989C2.7748 5.65751 4.05429 4.37802 5.62668 4.37802H7.32239V4.6C7.32239 5.36615 7.94363 5.9874 8.70978 5.9874C9.47594 5.9874 10.0972 5.36615 10.0972 4.6V4.37802H18.4987V4.6C18.4987 5.36615 19.1199 5.9874 19.8861 5.9874C20.6522 5.9874 21.2735 5.36615 21.2735 4.6V4.37802H29.6749V4.6C29.6749 5.36615 30.2962 5.9874 31.0623 5.9874C31.8285 5.9874 32.4497 5.36615 32.4497 4.6V4.37802H34.1454C35.7194 4.37802 36.9973 5.65751 36.9973 7.22989V11.7867H2.7748Z" fill="#1A83A8"/>
<path d="M31.2935 21.5554C31.2935 20.7892 30.6723 20.168 29.9061 20.168H9.86591C9.09976 20.168 8.47852 20.7892 8.47852 21.5554C8.47852 22.3215 9.09976 22.9428 9.86591 22.9428H29.9061C30.6723 22.9412 31.2935 22.3215 31.2935 21.5554ZM9.86591 28.4261C9.09976 28.4261 8.47852 29.0473 8.47852 29.8135C8.47852 30.5796 9.09976 31.2009 9.86591 31.2009H18.7607C19.5268 31.2009 20.1481 30.5796 20.1481 29.8135C20.1481 29.0473 19.5268 28.4261 18.7607 28.4261H9.86591ZM35.8581 40.1234C36.7969 38.7884 37.3164 37.2083 37.3164 35.5419C37.3164 33.4053 36.4839 31.3967 34.9717 29.8859C33.461 28.3752 31.4523 27.5412 29.3142 27.5412C27.176 27.5412 25.1689 28.3737 23.6567 29.8844C22.1459 31.3951 21.3135 33.4053 21.3135 35.5419C21.3135 37.68 22.1459 39.6887 23.6567 41.1994C25.1674 42.7101 27.176 43.5426 29.3142 43.5426C30.9806 43.5426 32.5591 43.0231 33.8941 42.0843L37.4027 45.5928C37.674 45.8641 38.0301 45.9998 38.3847 45.9998C38.7392 45.9998 39.0953 45.8641 39.3666 45.5928C39.9093 45.0517 39.9093 44.1731 39.3666 43.632L35.8581 40.1234ZM25.6206 39.237C24.6325 38.2504 24.0898 36.9385 24.0898 35.5419C24.0898 34.1468 24.634 32.8349 25.6206 31.8468C26.6072 30.8587 27.9191 30.316 29.3142 30.316C30.7093 30.316 32.0227 30.8602 33.0077 31.8483C33.9959 32.8349 34.5385 34.1468 34.5385 35.5419C34.5385 36.9385 33.9943 38.2504 33.0077 39.237C31.0361 41.2117 27.5923 41.2117 25.6206 39.237Z" fill="#1A83A8"/>
</svg>
